<svg width="1242" height="150" viewBox="0 0 1242 150" fill="none" xmlns="http://www.w3.org/2000/svg">
<g filter="url(#filter0_d_1_1654)">
<rect x="2" width="1238" height="143" rx="8" fill="#101010" shape-rendering="crispEdges"/>
<rect x="53.5" y="25.5" width="55" height="55" rx="7.5" fill="#222222"/>
<rect x="53.5" y="25.5" width="55" height="55" rx="7.5" stroke="#1FFFA9"/>
<path fill-rule="evenodd" clip-rule="evenodd" d="M69 45.0001C69 44.3636 69.2529 43.7531 69.7029 43.303C70.153 42.853 70.7635 42.6001 71.4 42.6001H90.6C91.2365 42.6001 91.847 42.853 92.2971 43.303C92.7471 43.7531 93 44.3636 93 45.0001V61.0001C93 61.6366 92.7471 62.2471 92.2971 62.6972C91.847 63.1472 91.2365 63.4001 90.6 63.4001H71.4C70.7635 63.4001 70.153 63.1472 69.7029 62.6972C69.2529 62.2471 69 61.6366 69 61.0001V45.0001ZM78.2688 53.0001L74.0336 48.7665L75.1664 47.6337L80.5312 53.0001L75.1664 58.3665L74.0336 57.2353L78.2688 53.0001ZM88.2 58.6001H81.8V57.0001H88.2V58.6001Z" fill="#1FFFA9"/>
<path d="M49.3946 108.616C49.32 108.739 49.2426 108.829 49.1626 108.888C49.088 108.941 48.9893 108.968 48.8666 108.968C48.7493 108.968 48.6213 108.928 48.4826 108.848C48.3493 108.763 48.192 108.672 48.0106 108.576C47.8293 108.48 47.6213 108.392 47.3866 108.312C47.152 108.227 46.8773 108.184 46.5626 108.184C46.008 108.184 45.592 108.309 45.3146 108.56C45.0373 108.805 44.8986 109.128 44.8986 109.528C44.8986 109.784 44.9733 109.997 45.1226 110.168C45.2773 110.333 45.4773 110.477 45.7226 110.6C45.9733 110.723 46.256 110.832 46.5706 110.928C46.8853 111.024 47.208 111.131 47.5386 111.248C47.8693 111.36 48.192 111.493 48.5066 111.648C48.8213 111.803 49.1013 111.997 49.3466 112.232C49.5973 112.467 49.7973 112.755 49.9466 113.096C50.1013 113.432 50.1786 113.843 50.1786 114.328C50.1786 114.856 50.0853 115.352 49.8986 115.816C49.7173 116.275 49.4533 116.677 49.1066 117.024C48.76 117.365 48.3306 117.635 47.8186 117.832C47.312 118.029 46.736 118.128 46.0906 118.128C45.7226 118.128 45.3546 118.091 44.9866 118.016C44.624 117.941 44.272 117.837 43.9306 117.704C43.5946 117.571 43.2773 117.411 42.9786 117.224C42.68 117.037 42.4186 116.829 42.1946 116.6L42.8986 115.464C42.9573 115.379 43.0346 115.309 43.1306 115.256C43.2266 115.197 43.328 115.168 43.4346 115.168C43.5786 115.168 43.7306 115.221 43.8906 115.328C44.0506 115.435 44.2346 115.552 44.4426 115.68C44.6506 115.808 44.8906 115.925 45.1626 116.032C45.44 116.139 45.7706 116.192 46.1546 116.192C46.7146 116.192 47.1466 116.064 47.4506 115.808C47.76 115.552 47.9146 115.171 47.9146 114.664C47.9146 114.371 47.8373 114.133 47.6826 113.952C47.5333 113.771 47.336 113.619 47.0906 113.496C46.8453 113.373 46.5653 113.269 46.2506 113.184C45.936 113.093 45.6133 112.995 45.2826 112.888C44.952 112.781 44.6293 112.653 44.3146 112.504C44 112.355 43.72 112.157 43.4746 111.912C43.2293 111.667 43.0293 111.363 42.8746 111C42.7253 110.637 42.6506 110.187 42.6506 109.648C42.6506 109.216 42.736 108.797 42.9066 108.392C43.0773 107.987 43.328 107.627 43.6586 107.312C43.9893 106.997 44.3946 106.744 44.8746 106.552C45.36 106.36 45.9146 106.264 46.5386 106.264C47.2373 106.264 47.8826 106.373 48.4746 106.592C49.072 106.805 49.576 107.104 49.9866 107.488L49.3946 108.616ZM58.2071 108.616C58.1325 108.739 58.0551 108.829 57.9751 108.888C57.9005 108.941 57.8018 108.968 57.6791 108.968C57.5618 108.968 57.4338 108.928 57.2951 108.848C57.1618 108.763 57.0045 108.672 56.8231 108.576C56.6418 108.48 56.4338 108.392 56.1991 108.312C55.9645 108.227 55.6898 108.184 55.3751 108.184C54.8205 108.184 54.4045 108.309 54.1271 108.56C53.8498 108.805 53.7111 109.128 53.7111 109.528C53.7111 109.784 53.7858 109.997 53.9351 110.168C54.0898 110.333 54.2898 110.477 54.5351 110.6C54.7858 110.723 55.0685 110.832 55.3831 110.928C55.6978 111.024 56.0205 111.131 56.3511 111.248C56.6818 111.36 57.0045 111.493 57.3191 111.648C57.6338 111.803 57.9138 111.997 58.1591 112.232C58.4098 112.467 58.6098 112.755 58.7591 113.096C58.9138 113.432 58.9911 113.843 58.9911 114.328C58.9911 114.856 58.8978 115.352 58.7111 115.816C58.5298 116.275 58.2658 116.677 57.9191 117.024C57.5725 117.365 57.1431 117.635 56.6311 117.832C56.1245 118.029 55.5485 118.128 54.9031 118.128C54.5351 118.128 54.1671 118.091 53.7991 118.016C53.4365 117.941 53.0845 117.837 52.7431 117.704C52.4071 117.571 52.0898 117.411 51.7911 117.224C51.4925 117.037 51.2311 116.829 51.0071 116.6L51.7111 115.464C51.7698 115.379 51.8471 115.309 51.9431 115.256C52.0391 115.197 52.1405 115.168 52.2471 115.168C52.3911 115.168 52.5431 115.221 52.7031 115.328C52.8631 115.435 53.0471 115.552 53.2551 115.68C53.4631 115.808 53.7031 115.925 53.9751 116.032C54.2525 116.139 54.5831 116.192 54.9671 116.192C55.5271 116.192 55.9591 116.064 56.2631 115.808C56.5725 115.552 56.7271 115.171 56.7271 114.664C56.7271 114.371 56.6498 114.133 56.4951 113.952C56.3458 113.771 56.1485 113.619 55.9031 113.496C55.6578 113.373 55.3778 113.269 55.0631 113.184C54.7485 113.093 54.4258 112.995 54.0951 112.888C53.7645 112.781 53.4418 112.653 53.1271 112.504C52.8125 112.355 52.5325 112.157 52.2871 111.912C52.0418 111.667 51.8418 111.363 51.6871 111C51.5378 110.637 51.4631 110.187 51.4631 109.648C51.4631 109.216 51.5485 108.797 51.7191 108.392C51.8898 107.987 52.1405 107.627 52.4711 107.312C52.8018 106.997 53.2071 106.744 53.6871 106.552C54.1725 106.36 54.7271 106.264 55.3511 106.264C56.0498 106.264 56.6951 106.373 57.2871 106.592C57.8845 106.805 58.3885 107.104 58.7991 107.488L58.2071 108.616ZM70.6756 106.392V118H68.2596V113H63.1476V118H60.7316V106.392H63.1476V111.32H68.2596V106.392H70.6756ZM87.3115 112.192C87.3115 113.04 87.1675 113.821 86.8795 114.536C86.5968 115.245 86.1942 115.856 85.6715 116.368C85.1542 116.88 84.5302 117.28 83.7995 117.568C83.0688 117.856 82.2582 118 81.3675 118H76.9035V106.392H81.3675C82.2582 106.392 83.0688 106.536 83.7995 106.824C84.5302 107.112 85.1542 107.515 85.6715 108.032C86.1942 108.544 86.5968 109.155 86.8795 109.864C87.1675 110.573 87.3115 111.349 87.3115 112.192ZM84.8475 112.192C84.8475 111.584 84.7675 111.037 84.6075 110.552C84.4475 110.067 84.2182 109.656 83.9195 109.32C83.6208 108.984 83.2555 108.725 82.8235 108.544C82.3968 108.363 81.9115 108.272 81.3675 108.272H79.3195V116.12H81.3675C81.9115 116.12 82.3968 116.032 82.8235 115.856C83.2555 115.675 83.6208 115.416 83.9195 115.08C84.2182 114.739 84.4475 114.325 84.6075 113.84C84.7675 113.355 84.8475 112.805 84.8475 112.192ZM90.9184 109.752V118H88.7104V109.752H90.9184ZM91.1824 107.408C91.1824 107.595 91.145 107.768 91.0704 107.928C90.9957 108.088 90.8944 108.229 90.7664 108.352C90.6437 108.475 90.497 108.571 90.3264 108.64C90.161 108.709 89.9824 108.744 89.7904 108.744C89.609 108.744 89.4357 108.709 89.2704 108.64C89.1104 108.571 88.969 108.475 88.8464 108.352C88.7237 108.229 88.625 108.088 88.5504 107.928C88.481 107.768 88.4464 107.595 88.4464 107.408C88.4464 107.221 88.481 107.048 88.5504 106.888C88.625 106.723 88.7237 106.579 88.8464 106.456C88.969 106.333 89.1104 106.237 89.2704 106.168C89.4357 106.099 89.609 106.064 89.7904 106.064C89.9824 106.064 90.161 106.099 90.3264 106.168C90.497 106.237 90.6437 106.333 90.7664 106.456C90.8944 106.579 90.9957 106.723 91.0704 106.888C91.145 107.048 91.1824 107.221 91.1824 107.408ZM94.8746 111.112C95.136 110.643 95.4373 110.272 95.7786 110C96.12 109.728 96.52 109.592 96.9786 109.592C97.352 109.592 97.656 109.68 97.8906 109.856L97.7466 111.488C97.72 111.595 97.6773 111.669 97.6186 111.712C97.5653 111.749 97.4906 111.768 97.3946 111.768C97.3093 111.768 97.1866 111.757 97.0266 111.736C96.8666 111.709 96.7173 111.696 96.5786 111.696C96.376 111.696 96.1946 111.725 96.0346 111.784C95.88 111.843 95.7413 111.925 95.6186 112.032C95.496 112.139 95.384 112.269 95.2826 112.424C95.1866 112.579 95.096 112.755 95.0106 112.952V118H92.8026V109.752H94.1066C94.3306 109.752 94.4853 109.792 94.5706 109.872C94.656 109.952 94.7173 110.091 94.7546 110.288L94.8746 111.112ZM103.878 112.904C103.878 112.675 103.846 112.456 103.782 112.248C103.724 112.04 103.628 111.856 103.494 111.696C103.361 111.536 103.193 111.411 102.99 111.32C102.788 111.224 102.545 111.176 102.262 111.176C101.734 111.176 101.321 111.325 101.022 111.624C100.724 111.923 100.529 112.349 100.438 112.904H103.878ZM100.406 114.216C100.476 114.989 100.694 115.555 101.062 115.912C101.436 116.269 101.921 116.448 102.518 116.448C102.822 116.448 103.084 116.413 103.302 116.344C103.526 116.269 103.721 116.189 103.886 116.104C104.057 116.013 104.209 115.933 104.342 115.864C104.481 115.789 104.617 115.752 104.75 115.752C104.921 115.752 105.054 115.816 105.15 115.944L105.79 116.744C105.556 117.016 105.297 117.243 105.014 117.424C104.732 117.6 104.438 117.741 104.134 117.848C103.83 117.949 103.524 118.019 103.214 118.056C102.905 118.099 102.606 118.12 102.318 118.12C101.742 118.12 101.204 118.027 100.702 117.84C100.206 117.648 99.7717 117.368 99.3984 117C99.0304 116.627 98.7397 116.165 98.5264 115.616C98.313 115.067 98.2064 114.429 98.2064 113.704C98.2064 113.144 98.297 112.616 98.4784 112.12C98.665 111.624 98.9317 111.192 99.2784 110.824C99.625 110.456 100.046 110.165 100.542 109.952C101.038 109.733 101.598 109.624 102.222 109.624C102.75 109.624 103.236 109.709 103.678 109.88C104.126 110.045 104.51 110.288 104.83 110.608C105.156 110.928 105.406 111.323 105.582 111.792C105.764 112.256 105.854 112.787 105.854 113.384C105.854 113.549 105.846 113.685 105.83 113.792C105.814 113.899 105.788 113.984 105.75 114.048C105.713 114.112 105.662 114.157 105.598 114.184C105.534 114.205 105.452 114.216 105.35 114.216H100.406ZM113.209 111.592C113.145 111.677 113.081 111.744 113.017 111.792C112.953 111.835 112.862 111.856 112.745 111.856C112.638 111.856 112.534 111.827 112.433 111.768C112.337 111.704 112.225 111.637 112.097 111.568C111.969 111.493 111.817 111.427 111.641 111.368C111.465 111.304 111.246 111.272 110.985 111.272C110.654 111.272 110.366 111.333 110.121 111.456C109.881 111.573 109.681 111.744 109.521 111.968C109.361 112.192 109.241 112.464 109.161 112.784C109.086 113.104 109.049 113.464 109.049 113.864C109.049 114.707 109.217 115.352 109.553 115.8C109.894 116.248 110.358 116.472 110.945 116.472C111.147 116.472 111.321 116.456 111.465 116.424C111.614 116.387 111.742 116.341 111.849 116.288C111.961 116.235 112.057 116.176 112.137 116.112C112.217 116.048 112.291 115.989 112.361 115.936C112.435 115.883 112.507 115.84 112.577 115.808C112.651 115.771 112.734 115.752 112.825 115.752C112.995 115.752 113.129 115.816 113.225 115.944L113.857 116.744C113.622 117.016 113.371 117.243 113.105 117.424C112.838 117.6 112.561 117.741 112.273 117.848C111.99 117.949 111.702 118.019 111.409 118.056C111.115 118.099 110.825 118.12 110.536 118.12C110.03 118.12 109.55 118.027 109.097 117.84C108.643 117.648 108.246 117.371 107.905 117.008C107.563 116.645 107.291 116.2 107.089 115.672C106.891 115.144 106.793 114.541 106.793 113.864C106.793 113.261 106.881 112.701 107.057 112.184C107.233 111.667 107.491 111.219 107.833 110.84C108.174 110.461 108.595 110.165 109.097 109.952C109.603 109.733 110.187 109.624 110.849 109.624C111.478 109.624 112.03 109.725 112.505 109.928C112.979 110.131 113.406 110.424 113.785 110.808L113.209 111.592ZM117.823 118.128C117.449 118.128 117.119 118.075 116.831 117.968C116.543 117.856 116.3 117.699 116.103 117.496C115.905 117.293 115.756 117.048 115.655 116.76C115.553 116.472 115.503 116.147 115.503 115.784V111.336H114.727C114.609 111.336 114.508 111.299 114.423 111.224C114.343 111.149 114.303 111.037 114.303 110.888V110.024L115.623 109.784L116.071 107.648C116.129 107.408 116.292 107.288 116.559 107.288H117.711V109.8H119.839V111.336H117.711V115.64C117.711 115.869 117.764 116.051 117.871 116.184C117.983 116.317 118.14 116.384 118.343 116.384C118.449 116.384 118.54 116.373 118.615 116.352C118.689 116.325 118.753 116.299 118.807 116.272C118.86 116.24 118.908 116.213 118.951 116.192C118.999 116.165 119.047 116.152 119.095 116.152C119.159 116.152 119.212 116.168 119.255 116.2C119.297 116.227 119.34 116.275 119.383 116.344L120.047 117.4C119.743 117.64 119.399 117.821 119.015 117.944C118.631 118.067 118.233 118.128 117.823 118.128Z" fill="white"/>
<rect x="188.5" y="25.5" width="55" height="55" rx="7.5" fill="#222222"/>
<rect x="188.5" y="25.5" width="55" height="55" rx="7.5" stroke="#1FFFA9"/>
<path d="M214.8 45.5714H211.2L216 41L220.8 45.5714H217.2V50.6342C216.3 51.1599 215.496 51.8113 214.8 52.5656V45.5714ZM228 52.4284L223.2 47.8571V51.2856C221.116 51.204 219.079 51.8917 217.514 53.2054C215.949 54.5191 214.977 56.3573 214.8 58.3369C213.9 58.6412 213.164 59.2728 212.752 60.0933C212.341 60.9137 212.287 61.8562 212.604 62.714C212.923 63.571 213.587 64.2723 214.448 64.6643C215.31 65.0564 216.299 65.1071 217.2 64.8054C218.099 64.5002 218.835 63.8685 219.246 63.0483C219.658 62.2282 219.711 61.2862 219.396 60.4283C219.036 59.4455 218.22 58.6798 217.2 58.3369C217.764 53.7656 222.564 53.537 223.14 53.537V56.9655L228 52.4284ZM214.356 53.1027C212.764 51.9324 210.811 51.2938 208.8 51.2856V47.8571L204 52.4284L208.8 56.9998V53.5713C210.408 53.6056 211.956 54.1427 213.168 55.1713C213.468 54.4398 213.864 53.7427 214.356 53.1027Z" fill="#1FFFA9"/>
<path d="M181.488 108.616C181.414 108.739 181.336 108.829 181.256 108.888C181.182 108.941 181.083 108.968 180.96 108.968C180.843 108.968 180.715 108.928 180.576 108.848C180.443 108.763 180.286 108.672 180.104 108.576C179.923 108.48 179.715 108.392 179.48 108.312C179.246 108.227 178.971 108.184 178.656 108.184C178.102 108.184 177.686 108.309 177.408 108.56C177.131 108.805 176.992 109.128 176.992 109.528C176.992 109.784 177.067 109.997 177.216 110.168C177.371 110.333 177.571 110.477 177.816 110.6C178.067 110.723 178.35 110.832 178.664 110.928C178.979 111.024 179.302 111.131 179.632 111.248C179.963 111.36 180.286 111.493 180.6 111.648C180.915 111.803 181.195 111.997 181.44 112.232C181.691 112.467 181.891 112.755 182.04 113.096C182.195 113.432 182.272 113.843 182.272 114.328C182.272 114.856 182.179 115.352 181.992 115.816C181.811 116.275 181.547 116.677 181.2 117.024C180.854 117.365 180.424 117.635 179.912 117.832C179.406 118.029 178.83 118.128 178.184 118.128C177.816 118.128 177.448 118.091 177.08 118.016C176.718 117.941 176.366 117.837 176.024 117.704C175.688 117.571 175.371 117.411 175.072 117.224C174.774 117.037 174.512 116.829 174.288 116.6L174.992 115.464C175.051 115.379 175.128 115.309 175.224 115.256C175.32 115.197 175.422 115.168 175.528 115.168C175.672 115.168 175.824 115.221 175.984 115.328C176.144 115.435 176.328 115.552 176.536 115.68C176.744 115.808 176.984 115.925 177.256 116.032C177.534 116.139 177.864 116.192 178.248 116.192C178.808 116.192 179.24 116.064 179.544 115.808C179.854 115.552 180.008 115.171 180.008 114.664C180.008 114.371 179.931 114.133 179.776 113.952C179.627 113.771 179.43 113.619 179.184 113.496C178.939 113.373 178.659 113.269 178.344 113.184C178.03 113.093 177.707 112.995 177.376 112.888C177.046 112.781 176.723 112.653 176.408 112.504C176.094 112.355 175.814 112.157 175.568 111.912C175.323 111.667 175.123 111.363 174.968 111C174.819 110.637 174.744 110.187 174.744 109.648C174.744 109.216 174.83 108.797 175 108.392C175.171 107.987 175.422 107.627 175.752 107.312C176.083 106.997 176.488 106.744 176.968 106.552C177.454 106.36 178.008 106.264 178.632 106.264C179.331 106.264 179.976 106.373 180.568 106.592C181.166 106.805 181.67 107.104 182.08 107.488L181.488 108.616ZM190.301 108.616C190.226 108.739 190.149 108.829 190.069 108.888C189.994 108.941 189.896 108.968 189.773 108.968C189.656 108.968 189.528 108.928 189.389 108.848C189.256 108.763 189.098 108.672 188.917 108.576C188.736 108.48 188.528 108.392 188.293 108.312C188.058 108.227 187.784 108.184 187.469 108.184C186.914 108.184 186.498 108.309 186.221 108.56C185.944 108.805 185.805 109.128 185.805 109.528C185.805 109.784 185.88 109.997 186.029 110.168C186.184 110.333 186.384 110.477 186.629 110.6C186.88 110.723 187.162 110.832 187.477 110.928C187.792 111.024 188.114 111.131 188.445 111.248C188.776 111.36 189.098 111.493 189.413 111.648C189.728 111.803 190.008 111.997 190.253 112.232C190.504 112.467 190.704 112.755 190.853 113.096C191.008 113.432 191.085 113.843 191.085 114.328C191.085 114.856 190.992 115.352 190.805 115.816C190.624 116.275 190.36 116.677 190.013 117.024C189.666 117.365 189.237 117.635 188.725 117.832C188.218 118.029 187.642 118.128 186.997 118.128C186.629 118.128 186.261 118.091 185.893 118.016C185.53 117.941 185.178 117.837 184.837 117.704C184.501 117.571 184.184 117.411 183.885 117.224C183.586 117.037 183.325 116.829 183.101 116.6L183.805 115.464C183.864 115.379 183.941 115.309 184.037 115.256C184.133 115.197 184.234 115.168 184.341 115.168C184.485 115.168 184.637 115.221 184.797 115.328C184.957 115.435 185.141 115.552 185.349 115.68C185.557 115.808 185.797 115.925 186.069 116.032C186.346 116.139 186.677 116.192 187.061 116.192C187.621 116.192 188.053 116.064 188.357 115.808C188.666 115.552 188.821 115.171 188.821 114.664C188.821 114.371 188.744 114.133 188.589 113.952C188.44 113.771 188.242 113.619 187.997 113.496C187.752 113.373 187.472 113.269 187.157 113.184C186.842 113.093 186.52 112.995 186.189 112.888C185.858 112.781 185.536 112.653 185.221 112.504C184.906 112.355 184.626 112.157 184.381 111.912C184.136 111.667 183.936 111.363 183.781 111C183.632 110.637 183.557 110.187 183.557 109.648C183.557 109.216 183.642 108.797 183.813 108.392C183.984 107.987 184.234 107.627 184.565 107.312C184.896 106.997 185.301 106.744 185.781 106.552C186.266 106.36 186.821 106.264 187.445 106.264C188.144 106.264 188.789 106.373 189.381 106.592C189.978 106.805 190.482 107.104 190.893 107.488L190.301 108.616ZM202.769 106.392V118H200.353V113H195.241V118H192.825V106.392H195.241V111.32H200.353V106.392H202.769ZM210.221 112.984C210.221 114.067 210.347 115.136 210.597 116.192C210.853 117.248 211.216 118.237 211.685 119.16C211.749 119.277 211.784 119.379 211.789 119.464C211.8 119.555 211.792 119.635 211.765 119.704C211.744 119.773 211.707 119.832 211.653 119.88C211.605 119.928 211.549 119.971 211.485 120.008L210.509 120.592C210.115 119.984 209.779 119.373 209.501 118.76C209.224 118.147 208.997 117.525 208.821 116.896C208.645 116.261 208.515 115.621 208.429 114.976C208.349 114.325 208.309 113.661 208.309 112.984C208.309 112.312 208.349 111.651 208.429 111C208.515 110.349 208.645 109.709 208.821 109.08C208.997 108.451 209.224 107.829 209.501 107.216C209.779 106.597 210.115 105.987 210.509 105.384L211.485 105.96C211.549 105.997 211.605 106.04 211.653 106.088C211.707 106.136 211.744 106.195 211.765 106.264C211.792 106.333 211.8 106.413 211.789 106.504C211.784 106.595 211.749 106.699 211.685 106.816C211.216 107.733 210.853 108.72 210.597 109.776C210.347 110.832 210.221 111.901 210.221 112.984ZM217.355 112.168C218.107 112.168 218.656 111.987 219.003 111.624C219.355 111.261 219.531 110.765 219.531 110.136C219.531 109.848 219.485 109.587 219.395 109.352C219.309 109.112 219.176 108.909 218.995 108.744C218.819 108.573 218.595 108.443 218.323 108.352C218.051 108.261 217.728 108.216 217.355 108.216H215.835V112.168H217.355ZM217.355 106.392C218.149 106.392 218.835 106.485 219.411 106.672C219.992 106.859 220.469 107.12 220.843 107.456C221.216 107.787 221.491 108.181 221.667 108.64C221.848 109.099 221.939 109.597 221.939 110.136C221.939 110.707 221.845 111.229 221.659 111.704C221.472 112.179 221.189 112.587 220.811 112.928C220.432 113.269 219.955 113.536 219.379 113.728C218.803 113.915 218.128 114.008 217.355 114.008H215.835V118H213.435V106.392H217.355ZM225.125 111.112C225.386 110.643 225.687 110.272 226.029 110C226.37 109.728 226.77 109.592 227.229 109.592C227.602 109.592 227.906 109.68 228.141 109.856L227.997 111.488C227.97 111.595 227.927 111.669 227.869 111.712C227.815 111.749 227.741 111.768 227.645 111.768C227.559 111.768 227.437 111.757 227.277 111.736C227.117 111.709 226.967 111.696 226.829 111.696C226.626 111.696 226.445 111.725 226.285 111.784C226.13 111.843 225.991 111.925 225.869 112.032C225.746 112.139 225.634 112.269 225.533 112.424C225.437 112.579 225.346 112.755 225.261 112.952V118H223.053V109.752H224.357C224.581 109.752 224.735 109.792 224.821 109.872C224.906 109.952 224.967 110.091 225.005 110.288L225.125 111.112ZM232.616 109.624C233.235 109.624 233.798 109.723 234.304 109.92C234.811 110.117 235.246 110.4 235.608 110.768C235.971 111.131 236.251 111.573 236.448 112.096C236.646 112.619 236.744 113.208 236.744 113.864C236.744 114.52 236.646 115.112 236.448 115.64C236.251 116.163 235.971 116.608 235.608 116.976C235.246 117.344 234.811 117.627 234.304 117.824C233.798 118.021 233.235 118.12 232.616 118.12C231.992 118.12 231.424 118.021 230.912 117.824C230.406 117.627 229.971 117.344 229.608 116.976C229.246 116.608 228.963 116.163 228.76 115.64C228.563 115.112 228.464 114.52 228.464 113.864C228.464 113.208 228.563 112.619 228.76 112.096C228.963 111.573 229.246 111.131 229.608 110.768C229.971 110.4 230.406 110.117 230.912 109.92C231.424 109.723 231.992 109.624 232.616 109.624ZM232.616 116.464C233.246 116.464 233.712 116.248 234.016 115.816C234.32 115.379 234.472 114.731 234.472 113.872C234.472 113.019 234.32 112.376 234.016 111.944C233.712 111.507 233.246 111.288 232.616 111.288C231.971 111.288 231.496 111.507 231.192 111.944C230.888 112.376 230.736 113.019 230.736 113.872C230.736 114.731 230.888 115.379 231.192 115.816C231.496 116.248 231.971 116.464 232.616 116.464ZM245.364 118H243.244C243.084 118 242.953 117.96 242.852 117.88C242.756 117.8 242.678 117.707 242.62 117.6L240.996 114.888C240.948 115.069 240.878 115.229 240.788 115.368L239.396 117.6C239.332 117.701 239.252 117.795 239.156 117.88C239.065 117.96 238.948 118 238.804 118H236.836L239.636 113.744L236.948 109.752H239.068C239.228 109.752 239.345 109.773 239.42 109.816C239.494 109.859 239.561 109.928 239.62 110.024L241.236 112.64C241.262 112.549 241.297 112.459 241.34 112.368C241.382 112.272 241.433 112.179 241.492 112.088L242.732 110.064C242.86 109.856 243.025 109.752 243.228 109.752H245.252L242.564 113.648L245.364 118ZM253.919 109.752L249.471 120.216C249.402 120.365 249.317 120.477 249.215 120.552C249.119 120.627 248.965 120.664 248.751 120.664H247.111L248.671 117.336L245.359 109.752H247.295C247.471 109.752 247.607 109.792 247.703 109.872C247.799 109.952 247.869 110.045 247.911 110.152L249.479 114.096C249.538 114.251 249.589 114.408 249.631 114.568C249.679 114.723 249.725 114.877 249.767 115.032C249.863 114.717 249.973 114.403 250.095 114.088L251.551 110.152C251.594 110.035 251.671 109.939 251.783 109.864C251.895 109.789 252.018 109.752 252.151 109.752H253.919ZM255.578 112.984C255.578 111.901 255.45 110.832 255.194 109.776C254.943 108.72 254.583 107.733 254.114 106.816C254.05 106.699 254.013 106.595 254.002 106.504C253.997 106.413 254.005 106.333 254.026 106.264C254.053 106.195 254.09 106.136 254.138 106.088C254.191 106.04 254.247 105.997 254.306 105.96L255.29 105.384C255.679 105.987 256.013 106.597 256.29 107.216C256.567 107.829 256.794 108.451 256.97 109.08C257.146 109.709 257.274 110.349 257.354 111C257.439 111.651 257.482 112.312 257.482 112.984C257.482 113.661 257.439 114.325 257.354 114.976C257.274 115.621 257.146 116.261 256.97 116.896C256.794 117.525 256.567 118.147 256.29 118.76C256.013 119.373 255.679 119.984 255.29 120.592L254.306 120.008C254.247 119.971 254.191 119.928 254.138 119.88C254.09 119.832 254.053 119.773 254.026 119.704C254.005 119.635 253.997 119.555 254.002 119.464C254.013 119.379 254.05 119.277 254.114 119.16C254.583 118.237 254.943 117.248 255.194 116.192C255.45 115.136 255.578 114.067 255.578 112.984Z" fill="white"/>
<rect x="323.5" y="25.5" width="55" height="55" rx="7.5" fill="#222222"/>
<rect x="323.5" y="25.5" width="55" height="55" rx="7.5" stroke="#1FFFA9"/>
<path d="M351 42.7129C345.319 42.7129 340.713 47.3194 340.713 53C340.713 58.6806 345.319 63.2871 351 63.2871C356.681 63.2871 361.287 58.6806 361.287 53C361.287 47.3194 356.681 42.7129 351 42.7129ZM346.287 49.1435C346.287 46.5452 348.402 44.4306 351 44.4306C353.598 44.4306 355.713 46.5452 355.713 49.1435V50.4306C355.713 50.6726 355.524 50.8613 355.282 50.8613H354.426C354.184 50.8613 353.995 50.6726 353.995 50.4306V49.1435C353.995 45.171 347.995 45.171 347.995 49.1435V50.4306C347.995 50.6726 347.806 50.8613 347.565 50.8613H346.708C346.466 50.8613 346.277 50.6726 346.277 50.4306V49.1435H346.287ZM357.856 59C357.856 59.4694 357.469 59.8565 357 59.8565H345C344.531 59.8565 344.144 59.4694 344.144 59V52.1435C344.144 51.6742 344.531 51.2871 345 51.2871H357C357.469 51.2871 357.856 51.6742 357.856 52.1435V59ZM345.856 52.3565V58.7871C345.856 58.9081 345.765 59 345.644 59H345.213C345.092 59 345 58.9081 345 58.7871V52.3565C345 52.2355 345.092 52.1435 345.213 52.1435H345.644C345.765 52.1435 345.856 52.2355 345.856 52.3565ZM352.713 54.7129C352.713 55.3419 352.365 55.8935 351.856 56.1839V57.7129C351.856 57.9548 351.668 58.1435 351.426 58.1435H350.569C350.327 58.1435 350.139 57.9548 350.139 57.7129V56.1839C349.631 55.8887 349.282 55.3419 349.282 54.7129C349.282 53.7597 350.047 53 350.995 53C351.944 53 352.713 53.7645 352.713 54.7129ZM351 41C344.371 41 339 46.371 339 53C339 59.629 344.371 65 351 65C357.629 65 363 59.629 363 53C363 46.371 357.629 41 351 41ZM351 64.1435C344.855 64.1435 339.856 59.1452 339.856 53C339.856 46.8548 344.855 41.8565 351 41.8565C357.145 41.8565 362.144 46.8548 362.144 53C362.144 59.1452 357.145 64.1435 351 64.1435Z" fill="#1FFFA9"/>
<path d="M309.504 108.616C309.429 108.739 309.352 108.829 309.272 108.888C309.197 108.941 309.099 108.968 308.976 108.968C308.859 108.968 308.731 108.928 308.592 108.848C308.459 108.763 308.301 108.672 308.12 108.576C307.939 108.48 307.731 108.392 307.496 108.312C307.261 108.227 306.987 108.184 306.672 108.184C306.117 108.184 305.701 108.309 305.424 108.56C305.147 108.805 305.008 109.128 305.008 109.528C305.008 109.784 305.083 109.997 305.232 110.168C305.387 110.333 305.587 110.477 305.832 110.6C306.083 110.723 306.365 110.832 306.68 110.928C306.995 111.024 307.317 111.131 307.648 111.248C307.979 111.36 308.301 111.493 308.616 111.648C308.931 111.803 309.211 111.997 309.456 112.232C309.707 112.467 309.907 112.755 310.056 113.096C310.211 113.432 310.288 113.843 310.288 114.328C310.288 114.856 310.195 115.352 310.008 115.816C309.827 116.275 309.563 116.677 309.216 117.024C308.869 117.365 308.44 117.635 307.928 117.832C307.421 118.029 306.845 118.128 306.2 118.128C305.832 118.128 305.464 118.091 305.096 118.016C304.733 117.941 304.381 117.837 304.04 117.704C303.704 117.571 303.387 117.411 303.088 117.224C302.789 117.037 302.528 116.829 302.304 116.6L303.008 115.464C303.067 115.379 303.144 115.309 303.24 115.256C303.336 115.197 303.437 115.168 303.544 115.168C303.688 115.168 303.84 115.221 304 115.328C304.16 115.435 304.344 115.552 304.552 115.68C304.76 115.808 305 115.925 305.272 116.032C305.549 116.139 305.88 116.192 306.264 116.192C306.824 116.192 307.256 116.064 307.56 115.808C307.869 115.552 308.024 115.171 308.024 114.664C308.024 114.371 307.947 114.133 307.792 113.952C307.643 113.771 307.445 113.619 307.2 113.496C306.955 113.373 306.675 113.269 306.36 113.184C306.045 113.093 305.723 112.995 305.392 112.888C305.061 112.781 304.739 112.653 304.424 112.504C304.109 112.355 303.829 112.157 303.584 111.912C303.339 111.667 303.139 111.363 302.984 111C302.835 110.637 302.76 110.187 302.76 109.648C302.76 109.216 302.845 108.797 303.016 108.392C303.187 107.987 303.437 107.627 303.768 107.312C304.099 106.997 304.504 106.744 304.984 106.552C305.469 106.36 306.024 106.264 306.648 106.264C307.347 106.264 307.992 106.373 308.584 106.592C309.181 106.805 309.685 107.104 310.096 107.488L309.504 108.616ZM318.317 108.616C318.242 108.739 318.165 108.829 318.085 108.888C318.01 108.941 317.911 108.968 317.789 108.968C317.671 108.968 317.543 108.928 317.405 108.848C317.271 108.763 317.114 108.672 316.933 108.576C316.751 108.48 316.543 108.392 316.309 108.312C316.074 108.227 315.799 108.184 315.485 108.184C314.93 108.184 314.514 108.309 314.237 108.56C313.959 108.805 313.821 109.128 313.821 109.528C313.821 109.784 313.895 109.997 314.045 110.168C314.199 110.333 314.399 110.477 314.645 110.6C314.895 110.723 315.178 110.832 315.493 110.928C315.807 111.024 316.13 111.131 316.461 111.248C316.791 111.36 317.114 111.493 317.429 111.648C317.743 111.803 318.023 111.997 318.269 112.232C318.519 112.467 318.719 112.755 318.869 113.096C319.023 113.432 319.101 113.843 319.101 114.328C319.101 114.856 319.007 115.352 318.821 115.816C318.639 116.275 318.375 116.677 318.029 117.024C317.682 117.365 317.253 117.635 316.741 117.832C316.234 118.029 315.658 118.128 315.013 118.128C314.645 118.128 314.277 118.091 313.909 118.016C313.546 117.941 313.194 117.837 312.853 117.704C312.517 117.571 312.199 117.411 311.901 117.224C311.602 117.037 311.341 116.829 311.117 116.6L311.821 115.464C311.879 115.379 311.957 115.309 312.053 115.256C312.149 115.197 312.25 115.168 312.357 115.168C312.501 115.168 312.653 115.221 312.812 115.328C312.973 115.435 313.157 115.552 313.365 115.68C313.573 115.808 313.813 115.925 314.085 116.032C314.362 116.139 314.693 116.192 315.077 116.192C315.637 116.192 316.069 116.064 316.373 115.808C316.682 115.552 316.837 115.171 316.837 114.664C316.837 114.371 316.759 114.133 316.605 113.952C316.455 113.771 316.258 113.619 316.013 113.496C315.767 113.373 315.487 113.269 315.173 113.184C314.858 113.093 314.535 112.995 314.205 112.888C313.874 112.781 313.551 112.653 313.237 112.504C312.922 112.355 312.642 112.157 312.397 111.912C312.151 111.667 311.951 111.363 311.797 111C311.647 110.637 311.573 110.187 311.573 109.648C311.573 109.216 311.658 108.797 311.829 108.392C311.999 107.987 312.25 107.627 312.581 107.312C312.911 106.997 313.317 106.744 313.797 106.552C314.282 106.36 314.837 106.264 315.461 106.264C316.159 106.264 316.805 106.373 317.397 106.592C317.994 106.805 318.498 107.104 318.909 107.488L318.317 108.616ZM330.785 106.392V118H328.369V113H323.257V118H320.841V106.392H323.257V111.32H328.369V106.392H330.785ZM343.301 108.616C343.226 108.739 343.149 108.829 343.069 108.888C342.994 108.941 342.896 108.968 342.773 108.968C342.656 108.968 342.528 108.928 342.389 108.848C342.256 108.763 342.098 108.672 341.917 108.576C341.736 108.48 341.528 108.392 341.293 108.312C341.058 108.227 340.784 108.184 340.469 108.184C339.914 108.184 339.498 108.309 339.221 108.56C338.944 108.805 338.805 109.128 338.805 109.528C338.805 109.784 338.88 109.997 339.029 110.168C339.184 110.333 339.384 110.477 339.629 110.6C339.88 110.723 340.162 110.832 340.477 110.928C340.792 111.024 341.114 111.131 341.445 111.248C341.776 111.36 342.098 111.493 342.413 111.648C342.728 111.803 343.008 111.997 343.253 112.232C343.504 112.467 343.704 112.755 343.853 113.096C344.008 113.432 344.085 113.843 344.085 114.328C344.085 114.856 343.992 115.352 343.805 115.816C343.624 116.275 343.36 116.677 343.013 117.024C342.666 117.365 342.237 117.635 341.725 117.832C341.218 118.029 340.642 118.128 339.997 118.128C339.629 118.128 339.261 118.091 338.893 118.016C338.53 117.941 338.178 117.837 337.837 117.704C337.501 117.571 337.184 117.411 336.885 117.224C336.586 117.037 336.325 116.829 336.101 116.6L336.805 115.464C336.864 115.379 336.941 115.309 337.037 115.256C337.133 115.197 337.234 115.168 337.341 115.168C337.485 115.168 337.637 115.221 337.797 115.328C337.957 115.435 338.141 115.552 338.349 115.68C338.557 115.808 338.797 115.925 339.069 116.032C339.346 116.139 339.677 116.192 340.061 116.192C340.621 116.192 341.053 116.064 341.357 115.808C341.666 115.552 341.821 115.171 341.821 114.664C341.821 114.371 341.744 114.133 341.589 113.952C341.44 113.771 341.242 113.619 340.997 113.496C340.752 113.373 340.472 113.269 340.157 113.184C339.842 113.093 339.52 112.995 339.189 112.888C338.858 112.781 338.536 112.653 338.221 112.504C337.906 112.355 337.626 112.157 337.381 111.912C337.136 111.667 336.936 111.363 336.781 111C336.632 110.637 336.557 110.187 336.557 109.648C336.557 109.216 336.642 108.797 336.813 108.392C336.984 107.987 337.234 107.627 337.565 107.312C337.896 106.997 338.301 106.744 338.781 106.552C339.266 106.36 339.821 106.264 340.445 106.264C341.144 106.264 341.789 106.373 342.381 106.592C342.978 106.805 343.482 107.104 343.893 107.488L343.301 108.616ZM352.113 108.616C352.039 108.739 351.961 108.829 351.881 108.888C351.807 108.941 351.708 108.968 351.585 108.968C351.468 108.968 351.34 108.928 351.201 108.848C351.068 108.763 350.911 108.672 350.729 108.576C350.548 108.48 350.34 108.392 350.105 108.312C349.871 108.227 349.596 108.184 349.281 108.184C348.727 108.184 348.311 108.309 348.033 108.56C347.756 108.805 347.617 109.128 347.617 109.528C347.617 109.784 347.692 109.997 347.841 110.168C347.996 110.333 348.196 110.477 348.441 110.6C348.692 110.723 348.975 110.832 349.289 110.928C349.604 111.024 349.927 111.131 350.257 111.248C350.588 111.36 350.911 111.493 351.225 111.648C351.54 111.803 351.82 111.997 352.065 112.232C352.316 112.467 352.516 112.755 352.665 113.096C352.82 113.432 352.897 113.843 352.897 114.328C352.897 114.856 352.804 115.352 352.617 115.816C352.436 116.275 352.172 116.677 351.825 117.024C351.479 117.365 351.049 117.635 350.537 117.832C350.031 118.029 349.455 118.128 348.809 118.128C348.441 118.128 348.073 118.091 347.705 118.016C347.343 117.941 346.991 117.837 346.649 117.704C346.313 117.571 345.996 117.411 345.697 117.224C345.399 117.037 345.137 116.829 344.913 116.6L345.617 115.464C345.676 115.379 345.753 115.309 345.849 115.256C345.945 115.197 346.047 115.168 346.153 115.168C346.297 115.168 346.449 115.221 346.609 115.328C346.769 115.435 346.953 115.552 347.161 115.68C347.369 115.808 347.609 115.925 347.881 116.032C348.159 116.139 348.489 116.192 348.873 116.192C349.433 116.192 349.865 116.064 350.169 115.808C350.479 115.552 350.633 115.171 350.633 114.664C350.633 114.371 350.556 114.133 350.401 113.952C350.252 113.771 350.055 113.619 349.809 113.496C349.564 113.373 349.284 113.269 348.969 113.184C348.655 113.093 348.332 112.995 348.001 112.888C347.671 112.781 347.348 112.653 347.033 112.504C346.719 112.355 346.439 112.157 346.193 111.912C345.948 111.667 345.748 111.363 345.593 111C345.444 110.637 345.369 110.187 345.369 109.648C345.369 109.216 345.455 108.797 345.625 108.392C345.796 107.987 346.047 107.627 346.377 107.312C346.708 106.997 347.113 106.744 347.593 106.552C348.079 106.36 348.633 106.264 349.257 106.264C349.956 106.264 350.601 106.373 351.193 106.592C351.791 106.805 352.295 107.104 352.705 107.488L352.113 108.616ZM361.526 116.048V118H354.638V106.392H357.038V116.048H361.526ZM367.534 112.984C367.534 114.067 367.659 115.136 367.91 116.192C368.166 117.248 368.528 118.237 368.998 119.16C369.062 119.277 369.096 119.379 369.102 119.464C369.112 119.555 369.104 119.635 369.078 119.704C369.056 119.773 369.019 119.832 368.966 119.88C368.918 119.928 368.862 119.971 368.798 120.008L367.822 120.592C367.427 119.984 367.091 119.373 366.814 118.76C366.536 118.147 366.31 117.525 366.134 116.896C365.958 116.261 365.827 115.621 365.742 114.976C365.662 114.325 365.622 113.661 365.622 112.984C365.622 112.312 365.662 111.651 365.742 111C365.827 110.349 365.958 109.709 366.134 109.08C366.31 108.451 366.536 107.829 366.814 107.216C367.091 106.597 367.427 105.987 367.822 105.384L368.798 105.96C368.862 105.997 368.918 106.04 368.966 106.088C369.019 106.136 369.056 106.195 369.078 106.264C369.104 106.333 369.112 106.413 369.102 106.504C369.096 106.595 369.062 106.699 368.998 106.816C368.528 107.733 368.166 108.72 367.91 109.776C367.659 110.832 367.534 111.901 367.534 112.984ZM377.035 108.616C376.961 108.739 376.883 108.829 376.803 108.888C376.729 108.941 376.63 108.968 376.507 108.968C376.39 108.968 376.262 108.928 376.123 108.848C375.99 108.763 375.833 108.672 375.651 108.576C375.47 108.48 375.262 108.392 375.027 108.312C374.793 108.227 374.518 108.184 374.203 108.184C373.649 108.184 373.233 108.309 372.955 108.56C372.678 108.805 372.539 109.128 372.539 109.528C372.539 109.784 372.614 109.997 372.763 110.168C372.918 110.333 373.118 110.477 373.363 110.6C373.614 110.723 373.897 110.832 374.211 110.928C374.526 111.024 374.849 111.131 375.179 111.248C375.51 111.36 375.833 111.493 376.147 111.648C376.462 111.803 376.742 111.997 376.987 112.232C377.238 112.467 377.438 112.755 377.587 113.096C377.742 113.432 377.819 113.843 377.819 114.328C377.819 114.856 377.726 115.352 377.539 115.816C377.358 116.275 377.094 116.677 376.747 117.024C376.401 117.365 375.971 117.635 375.459 117.832C374.953 118.029 374.377 118.128 373.731 118.128C373.363 118.128 372.995 118.091 372.627 118.016C372.265 117.941 371.913 117.837 371.571 117.704C371.235 117.571 370.918 117.411 370.619 117.224C370.321 117.037 370.059 116.829 369.835 116.6L370.539 115.464C370.598 115.379 370.675 115.309 370.771 115.256C370.867 115.197 370.969 115.168 371.075 115.168C371.219 115.168 371.371 115.221 371.531 115.328C371.691 115.435 371.875 115.552 372.083 115.68C372.291 115.808 372.531 115.925 372.803 116.032C373.081 116.139 373.411 116.192 373.795 116.192C374.355 116.192 374.787 116.064 375.091 115.808C375.401 115.552 375.555 115.171 375.555 114.664C375.555 114.371 375.478 114.133 375.323 113.952C375.174 113.771 374.977 113.619 374.731 113.496C374.486 113.373 374.206 113.269 373.891 113.184C373.577 113.093 373.254 112.995 372.923 112.888C372.593 112.781 372.27 112.653 371.955 112.504C371.641 112.355 371.361 112.157 371.115 111.912C370.87 111.667 370.67 111.363 370.515 111C370.366 110.637 370.291 110.187 370.291 109.648C370.291 109.216 370.377 108.797 370.547 108.392C370.718 107.987 370.969 107.627 371.299 107.312C371.63 106.997 372.035 106.744 372.515 106.552C373.001 106.36 373.555 106.264 374.179 106.264C374.878 106.264 375.523 106.373 376.115 106.592C376.713 106.805 377.217 107.104 377.627 107.488L377.035 108.616ZM389.504 106.392V118H388.264C388.077 118 387.92 117.971 387.792 117.912C387.664 117.848 387.538 117.741 387.416 117.592L381.632 110.232C381.648 110.419 381.658 110.603 381.664 110.784C381.674 110.965 381.68 111.133 381.68 111.288V118H379.56V106.392H380.824C380.925 106.392 381.01 106.397 381.08 106.408C381.154 106.413 381.221 106.432 381.28 106.464C381.338 106.491 381.394 106.528 381.448 106.576C381.501 106.624 381.56 106.688 381.624 106.768L387.448 114.16C387.426 113.957 387.41 113.763 387.4 113.576C387.389 113.384 387.384 113.203 387.384 113.032V106.392H389.504ZM394.351 118H391.935V106.392H394.351V118ZM397.562 112.984C397.562 111.901 397.435 110.832 397.179 109.776C396.928 108.72 396.568 107.733 396.099 106.816C396.035 106.699 395.997 106.595 395.987 106.504C395.981 106.413 395.989 106.333 396.011 106.264C396.037 106.195 396.075 106.136 396.123 106.088C396.176 106.04 396.232 105.997 396.291 105.96L397.275 105.384C397.664 105.987 397.997 106.597 398.275 107.216C398.552 107.829 398.779 108.451 398.955 109.08C399.131 109.709 399.259 110.349 399.339 111C399.424 111.651 399.467 112.312 399.467 112.984C399.467 113.661 399.424 114.325 399.339 114.976C399.259 115.621 399.131 116.261 398.955 116.896C398.779 117.525 398.552 118.147 398.275 118.76C397.997 119.373 397.664 119.984 397.275 120.592L396.291 120.008C396.232 119.971 396.176 119.928 396.123 119.88C396.075 119.832 396.037 119.773 396.011 119.704C395.989 119.635 395.981 119.555 395.987 119.464C395.997 119.379 396.035 119.277 396.099 119.16C396.568 118.237 396.928 117.248 397.179 116.192C397.435 115.136 397.562 114.067 397.562 112.984Z" fill="white"/>
<rect x="458.5" y="25.5" width="55" height="55" rx="7.5" fill="#222222"/>
<rect x="458.5" y="25.5" width="55" height="55" rx="7.5" stroke="#1FFFA9"/>
<path d="M483.52 59.4518L493.476 59.4045L496.166 56.8698L498 42.2768L495.68 39.8271L476.517 39.5942C475.429 40.3696 474.562 41.4144 474 42.6261L481.319 42.6974L478.434 65.2644C479.745 65.9664 481.201 66.3569 482.687 66.4056L483.52 59.4518Z" fill="#1FFFA9"/>
<path d="M485.852 44.0796L484.27 54.7369L491.53 54.659L493.086 44.0796H485.852Z" fill="#222222"/>
<path d="M462.331 112.168C463.083 112.168 463.633 111.987 463.979 111.624C464.331 111.261 464.507 110.765 464.507 110.136C464.507 109.848 464.462 109.587 464.371 109.352C464.286 109.112 464.153 108.909 463.971 108.744C463.795 108.573 463.571 108.443 463.299 108.352C463.027 108.261 462.705 108.216 462.331 108.216H460.811V112.168H462.331ZM462.331 106.392C463.126 106.392 463.811 106.485 464.387 106.672C464.969 106.859 465.446 107.12 465.819 107.456C466.193 107.787 466.467 108.181 466.643 108.64C466.825 109.099 466.915 109.597 466.915 110.136C466.915 110.707 466.822 111.229 466.635 111.704C466.449 112.179 466.166 112.587 465.787 112.928C465.409 113.269 464.931 113.536 464.355 113.728C463.779 113.915 463.105 114.008 462.331 114.008H460.811V118H458.411V106.392H462.331ZM473.079 111.448C473.02 111.539 472.959 111.605 472.895 111.648C472.836 111.685 472.754 111.704 472.647 111.704C472.54 111.704 472.431 111.677 472.319 111.624C472.207 111.571 472.082 111.515 471.943 111.456C471.804 111.392 471.644 111.333 471.463 111.28C471.287 111.227 471.082 111.2 470.847 111.2C470.49 111.2 470.212 111.275 470.015 111.424C469.818 111.568 469.719 111.76 469.719 112C469.719 112.165 469.775 112.304 469.887 112.416C469.999 112.528 470.146 112.627 470.327 112.712C470.514 112.792 470.724 112.869 470.959 112.944C471.194 113.013 471.434 113.091 471.679 113.176C471.93 113.261 472.172 113.36 472.407 113.472C472.642 113.584 472.85 113.725 473.031 113.896C473.218 114.061 473.367 114.264 473.479 114.504C473.591 114.739 473.647 115.024 473.647 115.36C473.647 115.76 473.572 116.131 473.423 116.472C473.279 116.808 473.066 117.099 472.783 117.344C472.5 117.589 472.148 117.781 471.727 117.92C471.306 118.059 470.82 118.128 470.271 118.128C469.988 118.128 469.708 118.101 469.431 118.048C469.154 118 468.89 117.931 468.639 117.84C468.388 117.744 468.154 117.635 467.935 117.512C467.716 117.389 467.527 117.256 467.367 117.112L467.879 116.288C467.938 116.192 468.01 116.117 468.095 116.064C468.186 116.011 468.3 115.984 468.439 115.984C468.572 115.984 468.695 116.019 468.807 116.088C468.919 116.152 469.044 116.224 469.183 116.304C469.322 116.379 469.484 116.451 469.671 116.52C469.863 116.584 470.1 116.616 470.383 116.616C470.596 116.616 470.78 116.592 470.935 116.544C471.09 116.496 471.215 116.432 471.311 116.352C471.407 116.267 471.476 116.173 471.519 116.072C471.567 115.965 471.591 115.856 471.591 115.744C471.591 115.563 471.532 115.416 471.415 115.304C471.303 115.187 471.154 115.085 470.967 115C470.786 114.915 470.575 114.837 470.335 114.768C470.095 114.699 469.85 114.621 469.599 114.536C469.354 114.451 469.111 114.349 468.871 114.232C468.636 114.115 468.426 113.968 468.239 113.792C468.058 113.611 467.908 113.389 467.791 113.128C467.679 112.867 467.623 112.549 467.623 112.176C467.623 111.835 467.69 111.512 467.823 111.208C467.956 110.899 468.156 110.627 468.423 110.392C468.69 110.157 469.02 109.971 469.415 109.832C469.815 109.693 470.276 109.624 470.799 109.624C471.386 109.624 471.919 109.72 472.399 109.912C472.879 110.104 473.274 110.355 473.583 110.664L473.079 111.448ZM477.301 109.752V118H475.093V109.752H477.301ZM477.565 107.408C477.565 107.595 477.528 107.768 477.453 107.928C477.379 108.088 477.277 108.229 477.149 108.352C477.027 108.475 476.88 108.571 476.709 108.64C476.544 108.709 476.365 108.744 476.173 108.744C475.992 108.744 475.819 108.709 475.653 108.64C475.493 108.571 475.352 108.475 475.229 108.352C475.107 108.229 475.008 108.088 474.933 107.928C474.864 107.768 474.829 107.595 474.829 107.408C474.829 107.221 474.864 107.048 474.933 106.888C475.008 106.723 475.107 106.579 475.229 106.456C475.352 106.333 475.493 106.237 475.653 106.168C475.819 106.099 475.992 106.064 476.173 106.064C476.365 106.064 476.544 106.099 476.709 106.168C476.88 106.237 477.027 106.333 477.149 106.456C477.277 106.579 477.379 106.723 477.453 106.888C477.528 107.048 477.565 107.221 477.565 107.408ZM481.393 115.824C481.601 116.064 481.825 116.232 482.065 116.328C482.311 116.424 482.572 116.472 482.849 116.472C483.116 116.472 483.359 116.421 483.577 116.32C483.796 116.219 483.983 116.061 484.137 115.848C484.297 115.629 484.42 115.352 484.505 115.016C484.591 114.68 484.633 114.28 484.633 113.816C484.633 113.357 484.596 112.968 484.521 112.648C484.452 112.328 484.351 112.069 484.217 111.872C484.089 111.675 483.932 111.533 483.745 111.448C483.559 111.357 483.351 111.312 483.121 111.312C482.732 111.312 482.404 111.389 482.137 111.544C481.876 111.693 481.628 111.915 481.393 112.208V115.824ZM481.265 110.832C481.431 110.651 481.607 110.485 481.793 110.336C481.98 110.181 482.18 110.051 482.393 109.944C482.607 109.832 482.836 109.747 483.081 109.688C483.327 109.624 483.593 109.592 483.881 109.592C484.324 109.592 484.729 109.688 485.097 109.88C485.471 110.067 485.791 110.341 486.057 110.704C486.324 111.061 486.532 111.501 486.681 112.024C486.831 112.547 486.905 113.144 486.905 113.816C486.905 114.435 486.82 115.008 486.649 115.536C486.484 116.059 486.247 116.512 485.937 116.896C485.628 117.28 485.255 117.581 484.817 117.8C484.385 118.013 483.903 118.12 483.369 118.12C482.921 118.12 482.54 118.053 482.225 117.92C481.916 117.787 481.639 117.605 481.393 117.376V120.664H479.185V109.752H480.545C480.823 109.752 481.007 109.88 481.097 110.136L481.265 110.832ZM490.534 110.56C490.689 110.421 490.849 110.296 491.014 110.184C491.185 110.067 491.363 109.968 491.55 109.888C491.742 109.803 491.945 109.739 492.158 109.696C492.377 109.648 492.611 109.624 492.862 109.624C493.31 109.624 493.707 109.701 494.054 109.856C494.401 110.011 494.691 110.227 494.926 110.504C495.166 110.781 495.345 111.112 495.462 111.496C495.585 111.88 495.646 112.301 495.646 112.76V118H493.446V112.76C493.446 112.301 493.339 111.947 493.126 111.696C492.913 111.44 492.598 111.312 492.182 111.312C491.873 111.312 491.582 111.379 491.31 111.512C491.038 111.645 490.779 111.832 490.534 112.072V118H488.326V106.072H490.534V110.56ZM501.124 109.624C501.743 109.624 502.306 109.723 502.812 109.92C503.319 110.117 503.754 110.4 504.116 110.768C504.479 111.131 504.759 111.573 504.956 112.096C505.154 112.619 505.252 113.208 505.252 113.864C505.252 114.52 505.154 115.112 504.956 115.64C504.759 116.163 504.479 116.608 504.116 116.976C503.754 117.344 503.319 117.627 502.812 117.824C502.306 118.021 501.743 118.12 501.124 118.12C500.5 118.12 499.932 118.021 499.42 117.824C498.914 117.627 498.479 117.344 498.116 116.976C497.754 116.608 497.471 116.163 497.268 115.64C497.071 115.112 496.972 114.52 496.972 113.864C496.972 113.208 497.071 112.619 497.268 112.096C497.471 111.573 497.754 111.131 498.116 110.768C498.479 110.4 498.914 110.117 499.42 109.92C499.932 109.723 500.5 109.624 501.124 109.624ZM501.124 116.464C501.754 116.464 502.22 116.248 502.524 115.816C502.828 115.379 502.98 114.731 502.98 113.872C502.98 113.019 502.828 112.376 502.524 111.944C502.22 111.507 501.754 111.288 501.124 111.288C500.479 111.288 500.004 111.507 499.7 111.944C499.396 112.376 499.244 113.019 499.244 113.872C499.244 114.731 499.396 115.379 499.7 115.816C500.004 116.248 500.479 116.464 501.124 116.464ZM508.687 110.712C508.852 110.552 509.023 110.405 509.199 110.272C509.38 110.139 509.569 110.024 509.767 109.928C509.969 109.832 510.185 109.757 510.415 109.704C510.649 109.651 510.903 109.624 511.175 109.624C511.623 109.624 512.02 109.701 512.367 109.856C512.713 110.011 513.004 110.227 513.239 110.504C513.479 110.781 513.657 111.112 513.775 111.496C513.897 111.88 513.959 112.301 513.959 112.76V118H511.759V112.76C511.759 112.301 511.652 111.947 511.439 111.696C511.225 111.44 510.911 111.312 510.495 111.312C510.185 111.312 509.895 111.379 509.623 111.512C509.351 111.645 509.092 111.832 508.847 112.072V118H506.639V109.752H507.999C508.276 109.752 508.46 109.88 508.551 110.136L508.687 110.712Z" fill="white"/>
<rect x="593.5" y="25.5" width="55" height="55" rx="7.5" fill="#222222"/>
<rect x="593.5" y="25.5" width="55" height="55" rx="7.5" stroke="#1FFFA9"/>
<path d="M620.429 65C618.867 65 617.39 64.6998 616 64.0994C614.61 63.499 613.395 62.68 612.358 61.6423C611.319 60.6046 610.5 59.3905 609.901 58C609.301 56.6095 609.001 55.1333 609 53.5714C609 51.9905 609.3 50.5097 609.901 49.1291C610.501 47.7486 611.32 46.539 612.358 45.5006C613.395 44.4621 614.609 43.643 615.999 43.0434C617.389 42.4438 618.865 42.1436 620.429 42.1429C621.038 42.1429 621.624 42.1859 622.186 42.272C622.749 42.3581 623.306 42.4865 623.857 42.6571V45.5714C623.857 46.2 623.634 46.7383 623.186 47.1863C622.739 47.6343 622.201 47.8579 621.571 47.8571H619.286V50.1429C619.286 50.4667 619.176 50.7383 618.957 50.9577C618.737 51.1771 618.466 51.2865 618.143 51.2857H615.857V53.5714H622.714C623.038 53.5714 623.31 53.6811 623.529 53.9006C623.749 54.12 623.858 54.3912 623.857 54.7143V58.1429H625C625.514 58.1429 625.967 58.2952 626.358 58.6C626.749 58.9048 627.02 59.2857 627.171 59.7429C627.914 58.9048 628.5 57.9665 628.929 56.928C629.358 55.8895 629.572 54.7707 629.571 53.5714C629.571 53.3619 629.562 53.1714 629.543 53C629.524 52.8286 629.495 52.6381 629.457 52.4286H631.8C631.838 52.6381 631.857 52.8286 631.857 53V53.5714C631.857 55.1333 631.557 56.6095 630.958 58C630.358 59.3905 629.539 60.6049 628.501 61.6434C627.462 62.6811 626.253 63.5002 624.872 64.1006C623.491 64.701 622.01 65.0008 620.429 65ZM619.286 62.6571V60.4286C618.657 60.4286 618.119 60.205 617.672 59.7577C617.225 59.3105 617.001 58.7722 617 58.1429V57L611.514 51.5143C611.457 51.8571 611.405 52.2 611.358 52.5429C611.31 52.8857 611.286 53.2286 611.286 53.5714C611.286 55.9333 612.053 57.9669 613.586 59.672C615.12 61.3771 617.02 62.3722 619.286 62.6571ZM627.286 50.1429C626.962 50.1429 626.691 50.0335 626.472 49.8149C626.253 49.5962 626.144 49.3246 626.143 49V45.5714C626.143 45.2476 626.253 44.9764 626.472 44.7577C626.691 44.539 626.963 44.4293 627.286 44.4286V43.2857C627.286 42.6571 627.51 42.1192 627.958 41.672C628.406 41.2248 628.944 41.0008 629.571 41C630.2 41 630.738 41.224 631.186 41.672C631.634 42.12 631.858 42.6579 631.857 43.2857V44.4286C632.181 44.4286 632.453 44.5383 632.672 44.7577C632.891 44.9771 633.001 45.2484 633 45.5714V49C633 49.3238 632.89 49.5954 632.671 49.8149C632.451 50.0343 632.18 50.1436 631.857 50.1429H627.286ZM628.429 44.4286H630.714V43.2857C630.714 42.9619 630.605 42.6907 630.385 42.472C630.166 42.2533 629.894 42.1436 629.571 42.1429C629.248 42.1429 628.976 42.2526 628.758 42.472C628.539 42.6914 628.429 42.9627 628.429 43.2857V44.4286Z" fill="#1FFFA9"/>
<path d="M597.159 116.048V118H590.271V106.392H592.671V116.048H597.159ZM600.598 109.752V118H598.39V109.752H600.598ZM600.862 107.408C600.862 107.595 600.825 107.768 600.75 107.928C600.675 108.088 600.574 108.229 600.446 108.352C600.323 108.475 600.177 108.571 600.006 108.64C599.841 108.709 599.662 108.744 599.47 108.744C599.289 108.744 599.115 108.709 598.95 108.64C598.79 108.571 598.649 108.475 598.526 108.352C598.403 108.229 598.305 108.088 598.23 107.928C598.161 107.768 598.126 107.595 598.126 107.408C598.126 107.221 598.161 107.048 598.23 106.888C598.305 106.723 598.403 106.579 598.526 106.456C598.649 106.333 598.79 106.237 598.95 106.168C599.115 106.099 599.289 106.064 599.47 106.064C599.662 106.064 599.841 106.099 600.006 106.168C600.177 106.237 600.323 106.333 600.446 106.456C600.574 106.579 600.675 106.723 600.75 106.888C600.825 107.048 600.862 107.221 600.862 107.408ZM605.33 118.128C604.957 118.128 604.626 118.075 604.338 117.968C604.05 117.856 603.808 117.699 603.61 117.496C603.413 117.293 603.264 117.048 603.162 116.76C603.061 116.472 603.01 116.147 603.01 115.784V111.336H602.234C602.117 111.336 602.016 111.299 601.93 111.224C601.85 111.149 601.81 111.037 601.81 110.888V110.024L603.13 109.784L603.578 107.648C603.637 107.408 603.8 107.288 604.066 107.288H605.218V109.8H607.346V111.336H605.218V115.64C605.218 115.869 605.272 116.051 605.378 116.184C605.49 116.317 605.648 116.384 605.85 116.384C605.957 116.384 606.048 116.373 606.122 116.352C606.197 116.325 606.261 116.299 606.314 116.272C606.368 116.24 606.416 116.213 606.458 116.192C606.506 116.165 606.554 116.152 606.602 116.152C606.666 116.152 606.72 116.168 606.762 116.2C606.805 116.227 606.848 116.275 606.89 116.344L607.554 117.4C607.25 117.64 606.906 117.821 606.522 117.944C606.138 118.067 605.741 118.128 605.33 118.128ZM613.683 112.904C613.683 112.675 613.651 112.456 613.587 112.248C613.528 112.04 613.432 111.856 613.299 111.696C613.166 111.536 612.998 111.411 612.795 111.32C612.592 111.224 612.35 111.176 612.067 111.176C611.539 111.176 611.126 111.325 610.827 111.624C610.528 111.923 610.334 112.349 610.243 112.904H613.683ZM610.211 114.216C610.28 114.989 610.499 115.555 610.867 115.912C611.24 116.269 611.726 116.448 612.323 116.448C612.627 116.448 612.888 116.413 613.107 116.344C613.331 116.269 613.526 116.189 613.691 116.104C613.862 116.013 614.014 115.933 614.147 115.864C614.286 115.789 614.422 115.752 614.555 115.752C614.726 115.752 614.859 115.816 614.955 115.944L615.595 116.744C615.36 117.016 615.102 117.243 614.819 117.424C614.536 117.6 614.243 117.741 613.939 117.848C613.635 117.949 613.328 118.019 613.019 118.056C612.71 118.099 612.411 118.12 612.123 118.12C611.547 118.12 611.008 118.027 610.507 117.84C610.011 117.648 609.576 117.368 609.203 117C608.835 116.627 608.544 116.165 608.331 115.616C608.118 115.067 608.011 114.429 608.011 113.704C608.011 113.144 608.102 112.616 608.283 112.12C608.47 111.624 608.736 111.192 609.083 110.824C609.43 110.456 609.851 110.165 610.347 109.952C610.843 109.733 611.403 109.624 612.027 109.624C612.555 109.624 613.04 109.709 613.483 109.88C613.931 110.045 614.315 110.288 614.635 110.608C614.96 110.928 615.211 111.323 615.387 111.792C615.568 112.256 615.659 112.787 615.659 113.384C615.659 113.549 615.651 113.685 615.635 113.792C615.619 113.899 615.592 113.984 615.555 114.048C615.518 114.112 615.467 114.157 615.403 114.184C615.339 114.205 615.256 114.216 615.155 114.216H610.211ZM630.681 106.392L626.009 118H623.833L619.161 106.392H621.097C621.305 106.392 621.473 106.443 621.601 106.544C621.734 106.64 621.833 106.765 621.897 106.92L624.409 113.608C624.505 113.859 624.598 114.133 624.689 114.432C624.785 114.725 624.873 115.035 624.953 115.36C625.022 115.035 625.097 114.725 625.177 114.432C625.262 114.133 625.353 113.859 625.449 113.608L627.945 106.92C627.998 106.787 628.091 106.667 628.225 106.56C628.363 106.448 628.534 106.392 628.737 106.392H630.681ZM635.675 112.168C636.427 112.168 636.976 111.987 637.323 111.624C637.675 111.261 637.851 110.765 637.851 110.136C637.851 109.848 637.806 109.587 637.715 109.352C637.63 109.112 637.496 108.909 637.315 108.744C637.139 108.573 636.915 108.443 636.643 108.352C636.371 108.261 636.048 108.216 635.675 108.216H634.155V112.168H635.675ZM635.675 106.392C636.47 106.392 637.155 106.485 637.731 106.672C638.312 106.859 638.79 107.12 639.163 107.456C639.536 107.787 639.811 108.181 639.987 108.64C640.168 109.099 640.259 109.597 640.259 110.136C640.259 110.707 640.166 111.229 639.979 111.704C639.792 112.179 639.51 112.587 639.131 112.928C638.752 113.269 638.275 113.536 637.699 113.728C637.123 113.915 636.448 114.008 635.675 114.008H634.155V118H631.755V106.392H635.675ZM651.73 106.392V118H650.49C650.304 118 650.146 117.971 650.018 117.912C649.89 117.848 649.765 117.741 649.642 117.592L643.858 110.232C643.874 110.419 643.885 110.603 643.89 110.784C643.901 110.965 643.906 111.133 643.906 111.288V118H641.786V106.392H643.05C643.152 106.392 643.237 106.397 643.306 106.408C643.381 106.413 643.448 106.432 643.506 106.464C643.565 106.491 643.621 106.528 643.674 106.576C643.728 106.624 643.786 106.688 643.85 106.768L649.674 114.16C649.653 113.957 649.637 113.763 649.626 113.576C649.616 113.384 649.61 113.203 649.61 113.032V106.392H651.73Z" fill="white"/>
<rect x="728.5" y="25.5" width="55" height="55" rx="7.5" fill="#222222"/>
<rect x="728.5" y="25.5" width="55" height="55" rx="7.5" stroke="#1FFFA9"/>
<path d="M755.068 41L766.08 47.625V60.198L757.787 65V52.427L746.769 45.808L755.068 41ZM745.92 59.302L754.23 54.49V64.302L745.92 59.302Z" fill="#1FFFA9"/>
<path d="M732.699 112.168C733.451 112.168 734 111.987 734.347 111.624C734.699 111.261 734.875 110.765 734.875 110.136C734.875 109.848 734.829 109.587 734.739 109.352C734.653 109.112 734.52 108.909 734.339 108.744C734.163 108.573 733.939 108.443 733.667 108.352C733.395 108.261 733.072 108.216 732.699 108.216H731.179V112.168H732.699ZM732.699 106.392C733.493 106.392 734.179 106.485 734.755 106.672C735.336 106.859 735.813 107.12 736.187 107.456C736.56 107.787 736.835 108.181 737.011 108.64C737.192 109.099 737.283 109.597 737.283 110.136C737.283 110.707 737.189 111.229 737.003 111.704C736.816 112.179 736.533 112.587 736.155 112.928C735.776 113.269 735.299 113.536 734.723 113.728C734.147 113.915 733.472 114.008 732.699 114.008H731.179V118H728.779V106.392H732.699ZM742.583 114.552C742.045 114.579 741.597 114.627 741.239 114.696C740.882 114.76 740.597 114.845 740.383 114.952C740.175 115.059 740.026 115.181 739.935 115.32C739.85 115.453 739.807 115.6 739.807 115.76C739.807 116.08 739.895 116.307 740.071 116.44C740.253 116.573 740.503 116.64 740.823 116.64C741.191 116.64 741.509 116.576 741.775 116.448C742.047 116.315 742.317 116.109 742.583 115.832V114.552ZM738.087 110.896C738.573 110.459 739.109 110.133 739.695 109.92C740.282 109.701 740.917 109.592 741.599 109.592C742.09 109.592 742.527 109.672 742.911 109.832C743.301 109.992 743.629 110.216 743.895 110.504C744.167 110.787 744.375 111.125 744.519 111.52C744.663 111.915 744.735 112.347 744.735 112.816V118H743.727C743.519 118 743.359 117.971 743.247 117.912C743.141 117.853 743.053 117.731 742.983 117.544L742.807 117.016C742.599 117.197 742.397 117.357 742.199 117.496C742.007 117.635 741.807 117.752 741.599 117.848C741.391 117.939 741.167 118.008 740.927 118.056C740.693 118.104 740.429 118.128 740.135 118.128C739.773 118.128 739.442 118.08 739.143 117.984C738.845 117.888 738.586 117.747 738.367 117.56C738.154 117.368 737.989 117.131 737.871 116.848C737.754 116.565 737.695 116.24 737.695 115.872C737.695 115.568 737.773 115.264 737.927 114.96C738.082 114.656 738.346 114.381 738.719 114.136C739.098 113.885 739.599 113.68 740.223 113.52C740.853 113.355 741.639 113.261 742.583 113.24V112.816C742.583 112.299 742.474 111.92 742.255 111.68C742.037 111.435 741.722 111.312 741.311 111.312C741.007 111.312 740.754 111.349 740.551 111.424C740.349 111.493 740.17 111.571 740.015 111.656C739.866 111.736 739.725 111.813 739.591 111.888C739.458 111.957 739.303 111.992 739.127 111.992C738.973 111.992 738.842 111.955 738.735 111.88C738.634 111.8 738.549 111.707 738.479 111.6L738.087 110.896ZM753.857 109.752L749.409 120.216C749.34 120.365 749.254 120.477 749.153 120.552C749.057 120.627 748.902 120.664 748.689 120.664H747.049L748.609 117.336L745.297 109.752H747.233C747.409 109.752 747.545 109.792 747.641 109.872C747.737 109.952 747.806 110.045 747.849 110.152L749.417 114.096C749.476 114.251 749.526 114.408 749.569 114.568C749.617 114.723 749.662 114.877 749.705 115.032C749.801 114.717 749.91 114.403 750.033 114.088L751.489 110.152C751.532 110.035 751.609 109.939 751.721 109.864C751.833 109.789 751.956 109.752 752.089 109.752H753.857ZM756.949 106.072V118H754.741V106.072H756.949ZM762.507 109.624C763.126 109.624 763.688 109.723 764.195 109.92C764.702 110.117 765.136 110.4 765.499 110.768C765.862 111.131 766.142 111.573 766.339 112.096C766.536 112.619 766.635 113.208 766.635 113.864C766.635 114.52 766.536 115.112 766.339 115.64C766.142 116.163 765.862 116.608 765.499 116.976C765.136 117.344 764.702 117.627 764.195 117.824C763.688 118.021 763.126 118.12 762.507 118.12C761.883 118.12 761.315 118.021 760.803 117.824C760.296 117.627 759.862 117.344 759.499 116.976C759.136 116.608 758.854 116.163 758.651 115.64C758.454 115.112 758.355 114.52 758.355 113.864C758.355 113.208 758.454 112.619 758.651 112.096C758.854 111.573 759.136 111.131 759.499 110.768C759.862 110.4 760.296 110.117 760.803 109.92C761.315 109.723 761.883 109.624 762.507 109.624ZM762.507 116.464C763.136 116.464 763.603 116.248 763.907 115.816C764.211 115.379 764.363 114.731 764.363 113.872C764.363 113.019 764.211 112.376 763.907 111.944C763.603 111.507 763.136 111.288 762.507 111.288C761.862 111.288 761.387 111.507 761.083 111.944C760.779 112.376 760.627 113.019 760.627 113.872C760.627 114.731 760.779 115.379 761.083 115.816C761.387 116.248 761.862 116.464 762.507 116.464ZM772.333 114.552C771.795 114.579 771.347 114.627 770.989 114.696C770.632 114.76 770.347 114.845 770.133 114.952C769.925 115.059 769.776 115.181 769.685 115.32C769.6 115.453 769.557 115.6 769.557 115.76C769.557 116.08 769.645 116.307 769.821 116.44C770.003 116.573 770.253 116.64 770.573 116.64C770.941 116.64 771.259 116.576 771.525 116.448C771.797 116.315 772.067 116.109 772.333 115.832V114.552ZM767.837 110.896C768.323 110.459 768.859 110.133 769.445 109.92C770.032 109.701 770.667 109.592 771.349 109.592C771.84 109.592 772.277 109.672 772.661 109.832C773.051 109.992 773.379 110.216 773.645 110.504C773.917 110.787 774.125 111.125 774.269 111.52C774.413 111.915 774.485 112.347 774.485 112.816V118H773.477C773.269 118 773.109 117.971 772.997 117.912C772.891 117.853 772.803 117.731 772.733 117.544L772.557 117.016C772.349 117.197 772.147 117.357 771.949 117.496C771.757 117.635 771.557 117.752 771.349 117.848C771.141 117.939 770.917 118.008 770.677 118.056C770.443 118.104 770.179 118.128 769.885 118.128C769.523 118.128 769.192 118.08 768.893 117.984C768.595 117.888 768.336 117.747 768.117 117.56C767.904 117.368 767.739 117.131 767.621 116.848C767.504 116.565 767.445 116.24 767.445 115.872C767.445 115.568 767.523 115.264 767.677 114.96C767.832 114.656 768.096 114.381 768.469 114.136C768.848 113.885 769.349 113.68 769.973 113.52C770.603 113.355 771.389 113.261 772.333 113.24V112.816C772.333 112.299 772.224 111.92 772.005 111.68C771.787 111.435 771.472 111.312 771.061 111.312C770.757 111.312 770.504 111.349 770.301 111.424C770.099 111.493 769.92 111.571 769.765 111.656C769.616 111.736 769.475 111.813 769.341 111.888C769.208 111.957 769.053 111.992 768.877 111.992C768.723 111.992 768.592 111.955 768.485 111.88C768.384 111.8 768.299 111.707 768.229 111.6L767.837 110.896ZM781.305 111.896C781.097 111.656 780.87 111.488 780.625 111.392C780.385 111.296 780.129 111.248 779.857 111.248C779.59 111.248 779.348 111.299 779.129 111.4C778.91 111.501 778.721 111.661 778.561 111.88C778.406 112.093 778.286 112.368 778.201 112.704C778.116 113.04 778.073 113.44 778.073 113.904C778.073 114.363 778.108 114.752 778.177 115.072C778.246 115.392 778.345 115.651 778.473 115.848C778.606 116.045 778.766 116.189 778.953 116.28C779.14 116.365 779.348 116.408 779.577 116.408C779.966 116.408 780.292 116.331 780.553 116.176C780.82 116.021 781.07 115.803 781.305 115.52V111.896ZM783.513 106.072V118H782.153C781.87 118 781.689 117.872 781.609 117.616L781.425 116.896C781.26 117.077 781.084 117.243 780.897 117.392C780.716 117.541 780.518 117.672 780.305 117.784C780.092 117.891 779.862 117.973 779.617 118.032C779.372 118.091 779.105 118.12 778.817 118.12C778.374 118.12 777.969 118.027 777.601 117.84C777.233 117.653 776.913 117.381 776.641 117.024C776.374 116.661 776.166 116.219 776.017 115.696C775.868 115.173 775.793 114.576 775.793 113.904C775.793 113.291 775.876 112.72 776.041 112.192C776.212 111.664 776.452 111.208 776.761 110.824C777.07 110.44 777.444 110.139 777.881 109.92C778.318 109.701 778.804 109.592 779.337 109.592C779.785 109.592 780.161 109.659 780.465 109.792C780.774 109.925 781.054 110.107 781.305 110.336V106.072H783.513Z" fill="white"/>
<rect x="863.5" y="25.5" width="55" height="55" rx="7.5" fill="#222222"/>
<rect x="863.5" y="25.5" width="55" height="55" rx="7.5" stroke="#1FFFA9"/>
<path d="M883.5 58.498H885.5V61.498H883.5V58.498Z" fill="#141415"/>
<path d="M899.998 54.9968H882.002C881.471 54.9968 880.962 55.2078 880.586 55.5834C880.211 55.959 880 56.4683 880 56.9995V62.9974C880 63.2604 880.052 63.5208 880.152 63.7637C880.253 64.0067 880.4 64.2275 880.586 64.4134C880.772 64.5994 880.993 64.7469 881.236 64.8476C881.479 64.9482 881.739 65 882.002 65H899.998C900.529 65 901.038 64.789 901.414 64.4134C901.789 64.0379 902 63.5285 902 62.9974V56.9995C902 56.4683 901.789 55.959 901.414 55.5834C901.038 55.2078 900.529 54.9968 899.998 54.9968ZM887 61.4989C887.004 61.6969 886.967 61.8937 886.893 62.0774C886.819 62.2611 886.709 62.428 886.569 62.5681C886.429 62.7081 886.262 62.8185 886.078 62.8926C885.895 62.9667 885.698 63.003 885.5 62.9994H882V56.9975H885.5C885.698 56.9938 885.895 57.0301 886.078 57.1042C886.262 57.1783 886.429 57.2887 886.569 57.4288C886.709 57.5689 886.819 57.7357 886.893 57.9194C886.967 58.1031 887.004 58.2999 887 58.498V61.4989ZM893.5 62.9994H892.3L889.75 59.4983V62.9994H888.5V56.9975H889.75L892.25 60.4986V56.9975H893.5V62.9994ZM900 58.518H896.5V59.2582H899C899.265 59.2582 899.52 59.3636 899.707 59.5512C899.895 59.7388 900 59.9932 900 60.2585V61.9991C900 62.2644 899.895 62.5188 899.707 62.7064C899.52 62.894 899.265 62.9994 899 62.9994H895V61.4989H898.51V60.7587H896C895.735 60.7587 895.48 60.6533 895.293 60.4657C895.105 60.2781 895 60.0236 895 59.7583V57.9978C895 57.7325 895.105 57.4781 895.293 57.2905C895.48 57.1029 895.735 56.9975 896 56.9975H900V58.518ZM883.26 52.9962C883.092 52.3425 883.004 51.6706 883 50.9956C883.004 50.3206 883.092 49.6487 883.26 48.995H886.64C886.553 49.6584 886.506 50.3265 886.5 50.9956C886.506 51.6647 886.553 52.3328 886.64 52.9962H888.66C888.561 52.3338 888.508 51.6653 888.5 50.9956C888.507 50.3258 888.561 49.6574 888.66 48.995H893.34C893.439 49.6574 893.493 50.3258 893.5 50.9956C893.492 51.6653 893.439 52.3338 893.34 52.9962H895.36C895.447 52.3328 895.494 51.6647 895.5 50.9956C895.494 50.3265 895.447 49.6584 895.36 48.995H898.74C898.908 49.6487 898.996 50.3206 899 50.9956C898.996 51.6706 898.908 52.3425 898.74 52.9962H900.799C901.094 51.5433 901.063 50.0428 900.707 48.6034C900.352 47.164 899.681 45.8217 898.743 44.6736C897.805 43.5255 896.624 42.6003 895.285 41.9649C893.945 41.3296 892.482 41 891 41C889.517 41 888.054 41.3296 886.714 41.9649C885.375 42.6003 884.194 43.5255 883.256 44.6736C882.318 45.8217 881.647 47.164 881.292 48.6034C880.936 50.0428 880.905 51.5433 881.2 52.9962H883.26ZM897.92 46.9943H894.97C894.657 45.7554 894.194 44.5595 893.59 43.4332C895.414 44.0614 896.951 45.3255 897.92 46.9943ZM891 43.0331C891.84 44.2454 892.485 45.582 892.91 46.9943H889.09C889.515 45.582 890.16 44.2454 891 43.0331ZM888.41 43.4332C887.806 44.5594 887.343 45.7554 887.03 46.9943H884.08C885.046 45.323 886.584 44.058 888.41 43.4332Z" fill="#1FFFA9"/>
<path d="M862.676 108.616C862.601 108.739 862.524 108.829 862.444 108.888C862.369 108.941 862.271 108.968 862.148 108.968C862.031 108.968 861.903 108.928 861.764 108.848C861.631 108.763 861.473 108.672 861.292 108.576C861.111 108.48 860.903 108.392 860.668 108.312C860.433 108.227 860.159 108.184 859.844 108.184C859.289 108.184 858.873 108.309 858.596 108.56C858.319 108.805 858.18 109.128 858.18 109.528C858.18 109.784 858.255 109.997 858.404 110.168C858.559 110.333 858.759 110.477 859.004 110.6C859.255 110.723 859.537 110.832 859.852 110.928C860.167 111.024 860.489 111.131 860.82 111.248C861.151 111.36 861.473 111.493 861.788 111.648C862.103 111.803 862.383 111.997 862.628 112.232C862.879 112.467 863.079 112.755 863.228 113.096C863.383 113.432 863.46 113.843 863.46 114.328C863.46 114.856 863.367 115.352 863.18 115.816C862.999 116.275 862.735 116.677 862.388 117.024C862.041 117.365 861.612 117.635 861.1 117.832C860.593 118.029 860.017 118.128 859.372 118.128C859.004 118.128 858.636 118.091 858.268 118.016C857.905 117.941 857.553 117.837 857.212 117.704C856.876 117.571 856.559 117.411 856.26 117.224C855.961 117.037 855.7 116.829 855.476 116.6L856.18 115.464C856.239 115.379 856.316 115.309 856.412 115.256C856.508 115.197 856.609 115.168 856.716 115.168C856.86 115.168 857.012 115.221 857.172 115.328C857.332 115.435 857.516 115.552 857.724 115.68C857.932 115.808 858.172 115.925 858.444 116.032C858.721 116.139 859.052 116.192 859.436 116.192C859.996 116.192 860.428 116.064 860.732 115.808C861.041 115.552 861.196 115.171 861.196 114.664C861.196 114.371 861.119 114.133 860.964 113.952C860.815 113.771 860.617 113.619 860.372 113.496C860.127 113.373 859.847 113.269 859.532 113.184C859.217 113.093 858.895 112.995 858.564 112.888C858.233 112.781 857.911 112.653 857.596 112.504C857.281 112.355 857.001 112.157 856.756 111.912C856.511 111.667 856.311 111.363 856.156 111C856.007 110.637 855.932 110.187 855.932 109.648C855.932 109.216 856.017 108.797 856.188 108.392C856.359 107.987 856.609 107.627 856.94 107.312C857.271 106.997 857.676 106.744 858.156 106.552C858.641 106.36 859.196 106.264 859.82 106.264C860.519 106.264 861.164 106.373 861.756 106.592C862.353 106.805 862.857 107.104 863.268 107.488L862.676 108.616ZM867.011 106.072V118H864.803V106.072H867.011ZM872.57 109.624C873.188 109.624 873.751 109.723 874.258 109.92C874.764 110.117 875.199 110.4 875.562 110.768C875.924 111.131 876.204 111.573 876.402 112.096C876.599 112.619 876.698 113.208 876.698 113.864C876.698 114.52 876.599 115.112 876.402 115.64C876.204 116.163 875.924 116.608 875.562 116.976C875.199 117.344 874.764 117.627 874.258 117.824C873.751 118.021 873.188 118.12 872.57 118.12C871.946 118.12 871.378 118.021 870.866 117.824C870.359 117.627 869.924 117.344 869.562 116.976C869.199 116.608 868.916 116.163 868.714 115.64C868.516 115.112 868.418 114.52 868.418 113.864C868.418 113.208 868.516 112.619 868.714 112.096C868.916 111.573 869.199 111.131 869.562 110.768C869.924 110.4 870.359 110.117 870.866 109.92C871.378 109.723 871.946 109.624 872.57 109.624ZM872.57 116.464C873.199 116.464 873.666 116.248 873.97 115.816C874.274 115.379 874.426 114.731 874.426 113.872C874.426 113.019 874.274 112.376 873.97 111.944C873.666 111.507 873.199 111.288 872.57 111.288C871.924 111.288 871.45 111.507 871.146 111.944C870.842 112.376 870.69 113.019 870.69 113.872C870.69 114.731 870.842 115.379 871.146 115.816C871.45 116.248 871.924 116.464 872.57 116.464ZM889.887 109.752L887.295 118H885.511C885.421 118 885.338 117.971 885.263 117.912C885.194 117.853 885.141 117.755 885.103 117.616L883.759 113.152C883.706 112.981 883.658 112.813 883.615 112.648C883.578 112.477 883.543 112.307 883.511 112.136C883.474 112.307 883.434 112.48 883.391 112.656C883.354 112.827 883.309 112.997 883.255 113.168L881.895 117.616C881.821 117.872 881.661 118 881.415 118H879.719L877.127 109.752H878.887C879.047 109.752 879.181 109.789 879.287 109.864C879.399 109.939 879.474 110.035 879.511 110.152L880.527 114.232C880.591 114.493 880.647 114.747 880.695 114.992C880.743 115.237 880.789 115.48 880.831 115.72C880.895 115.48 880.962 115.237 881.031 114.992C881.106 114.747 881.183 114.493 881.263 114.232L882.471 110.136C882.509 110.024 882.581 109.931 882.687 109.856C882.794 109.781 882.919 109.744 883.063 109.744H884.039C884.194 109.744 884.325 109.781 884.431 109.856C884.543 109.931 884.618 110.024 884.655 110.136L885.823 114.232C885.898 114.488 885.97 114.741 886.039 114.992C886.109 115.237 886.173 115.485 886.231 115.736C886.274 115.491 886.319 115.245 886.367 115C886.421 114.749 886.482 114.493 886.551 114.232L887.615 110.152C887.653 110.035 887.725 109.939 887.831 109.864C887.938 109.789 888.063 109.752 888.207 109.752H889.887ZM905.093 112.192C905.093 113.04 904.949 113.821 904.661 114.536C904.378 115.245 903.975 115.856 903.453 116.368C902.935 116.88 902.311 117.28 901.581 117.568C900.85 117.856 900.039 118 899.149 118H894.685V106.392H899.149C900.039 106.392 900.85 106.536 901.581 106.824C902.311 107.112 902.935 107.515 903.453 108.032C903.975 108.544 904.378 109.155 904.661 109.864C904.949 110.573 905.093 111.349 905.093 112.192ZM902.629 112.192C902.629 111.584 902.549 111.037 902.389 110.552C902.229 110.067 901.999 109.656 901.701 109.32C901.402 108.984 901.037 108.725 900.605 108.544C900.178 108.363 899.693 108.272 899.149 108.272H897.101V116.12H899.149C899.693 116.12 900.178 116.032 900.605 115.856C901.037 115.675 901.402 115.416 901.701 115.08C901.999 114.739 902.229 114.325 902.389 113.84C902.549 113.355 902.629 112.805 902.629 112.192ZM916.801 106.392V118H915.561C915.374 118 915.217 117.971 915.089 117.912C914.961 117.848 914.835 117.741 914.713 117.592L908.929 110.232C908.945 110.419 908.955 110.603 908.961 110.784C908.971 110.965 908.977 111.133 908.977 111.288V118H906.857V106.392H908.121C908.222 106.392 908.307 106.397 908.377 106.408C908.451 106.413 908.518 106.432 908.577 106.464C908.635 106.491 908.691 106.528 908.745 106.576C908.798 106.624 908.857 106.688 908.921 106.768L914.745 114.16C914.723 113.957 914.707 113.763 914.697 113.576C914.686 113.384 914.681 113.203 914.681 113.032V106.392H916.801ZM925.52 108.616C925.445 108.739 925.368 108.829 925.288 108.888C925.213 108.941 925.114 108.968 924.992 108.968C924.874 108.968 924.746 108.928 924.608 108.848C924.474 108.763 924.317 108.672 924.136 108.576C923.954 108.48 923.746 108.392 923.512 108.312C923.277 108.227 923.002 108.184 922.688 108.184C922.133 108.184 921.717 108.309 921.44 108.56C921.162 108.805 921.024 109.128 921.024 109.528C921.024 109.784 921.098 109.997 921.248 110.168C921.402 110.333 921.602 110.477 921.848 110.6C922.098 110.723 922.381 110.832 922.696 110.928C923.01 111.024 923.333 111.131 923.664 111.248C923.994 111.36 924.317 111.493 924.632 111.648C924.946 111.803 925.226 111.997 925.472 112.232C925.722 112.467 925.922 112.755 926.072 113.096C926.226 113.432 926.304 113.843 926.304 114.328C926.304 114.856 926.21 115.352 926.024 115.816C925.842 116.275 925.578 116.677 925.232 117.024C924.885 117.365 924.456 117.635 923.944 117.832C923.437 118.029 922.861 118.128 922.216 118.128C921.848 118.128 921.48 118.091 921.112 118.016C920.749 117.941 920.397 117.837 920.056 117.704C919.72 117.571 919.402 117.411 919.104 117.224C918.805 117.037 918.544 116.829 918.32 116.6L919.024 115.464C919.082 115.379 919.16 115.309 919.256 115.256C919.352 115.197 919.453 115.168 919.56 115.168C919.704 115.168 919.856 115.221 920.016 115.328C920.176 115.435 920.36 115.552 920.568 115.68C920.776 115.808 921.016 115.925 921.288 116.032C921.565 116.139 921.896 116.192 922.28 116.192C922.84 116.192 923.272 116.064 923.576 115.808C923.885 115.552 924.04 115.171 924.04 114.664C924.04 114.371 923.962 114.133 923.808 113.952C923.658 113.771 923.461 113.619 923.216 113.496C922.97 113.373 922.69 113.269 922.376 113.184C922.061 113.093 921.738 112.995 921.408 112.888C921.077 112.781 920.754 112.653 920.44 112.504C920.125 112.355 919.845 112.157 919.6 111.912C919.354 111.667 919.154 111.363 919 111C918.85 110.637 918.776 110.187 918.776 109.648C918.776 109.216 918.861 108.797 919.032 108.392C919.202 107.987 919.453 107.627 919.784 107.312C920.114 106.997 920.52 106.744 921 106.552C921.485 106.36 922.04 106.264 922.664 106.264C923.362 106.264 924.008 106.373 924.6 106.592C925.197 106.805 925.701 107.104 926.112 107.488L925.52 108.616Z" fill="white"/>
<rect x="998.5" y="25.5" width="55" height="55" rx="7.5" fill="#222222"/>
<rect x="998.5" y="25.5" width="55" height="55" rx="7.5" stroke="#1FFFA9"/>
<path d="M1026 65C1025.84 64.9999 1025.69 64.9568 1025.56 64.8754C1025.42 64.7939 1025.31 64.6772 1025.24 64.538L1023.46 61.1094L1024.98 60.3191L1026 62.2846L1029.7 55.1763L1031.22 55.9666L1026.76 64.538C1026.69 64.6772 1026.58 64.7939 1026.44 64.8754C1026.31 64.9568 1026.16 64.9999 1026 65ZM1021.71 53.2383V51.2857C1021.71 49.3949 1020.18 47.8571 1018.29 47.8571C1016.39 47.8571 1014.86 49.3949 1014.86 51.2857V53.2383C1014.35 53.5357 1014 54.0826 1014 54.7143V59C1014 59.9454 1014.77 60.7143 1015.71 60.7143H1020.86C1021.8 60.7143 1022.57 59.9454 1022.57 59V54.7143C1022.57 54.0826 1022.22 53.5357 1021.71 53.2383ZM1018.29 49.5714C1019.23 49.5714 1020 50.3411 1020 51.2857V53H1016.57V51.2857C1016.57 50.3411 1017.34 49.5714 1018.29 49.5714ZM1020.86 59H1015.71V54.7143H1020.86V59ZM1037.14 41.8571H1029.19C1028.89 41.3471 1028.35 41 1027.71 41C1027.26 41 1026.82 41.1806 1026.5 41.5021C1026.18 41.8236 1026 42.2596 1026 42.7143C1026 43.1689 1026.18 43.605 1026.5 43.9265C1026.82 44.248 1027.26 44.4286 1027.71 44.4286C1028.35 44.4286 1028.89 44.0814 1029.19 43.5714H1035.73L1032.16 50.4449C1032.11 50.4397 1032.05 50.4286 1032 50.4286C1031.66 50.4286 1031.33 50.5291 1031.05 50.7175C1030.77 50.9058 1030.55 51.1736 1030.42 51.4868C1030.29 51.8001 1030.25 52.1448 1030.32 52.4773C1030.38 52.8098 1030.55 53.1153 1030.79 53.355C1031.03 53.5948 1031.33 53.7581 1031.67 53.8242C1032 53.8903 1032.34 53.8564 1032.66 53.7267C1032.97 53.5969 1033.24 53.3772 1033.43 53.0953C1033.61 52.8134 1033.71 52.4819 1033.71 52.1429C1033.71 51.896 1033.66 51.6629 1033.57 51.4503L1037.9 43.1103C1037.92 43.0709 1038 42.9286 1038 42.7143C1038 42.487 1037.91 42.2689 1037.75 42.1082C1037.59 41.9474 1037.37 41.8571 1037.14 41.8571ZM1014.86 41.8571C1014.63 41.8571 1014.41 41.9474 1014.25 42.1082C1014.09 42.2689 1014 42.487 1014 42.7143C1014 42.9286 1014.08 43.0726 1014.1 43.1094L1015.67 46.1429H1017.61L1016.27 43.5714H1024.29V41.8571H1014.86Z" fill="#1FFFA9"/>
<path d="M998.695 116.08C999.084 116.08 999.433 116.016 999.743 115.888C1000.05 115.755 1000.31 115.568 1000.53 115.328C1000.74 115.088 1000.9 114.797 1001.01 114.456C1001.13 114.115 1001.18 113.731 1001.18 113.304V106.392H1003.58V113.304C1003.58 114.008 1003.47 114.656 1003.24 115.248C1003.01 115.835 1002.69 116.341 1002.27 116.768C1001.85 117.195 1001.34 117.528 1000.73 117.768C1000.13 118.008 999.452 118.128 998.695 118.128C997.937 118.128 997.255 118.008 996.647 117.768C996.044 117.528 995.532 117.195 995.111 116.768C994.689 116.341 994.364 115.835 994.135 115.248C993.911 114.656 993.799 114.008 993.799 113.304V106.392H996.199V113.304C996.199 113.731 996.255 114.115 996.367 114.456C996.479 114.797 996.641 115.088 996.855 115.328C997.068 115.568 997.329 115.755 997.639 115.888C997.948 116.016 998.3 116.08 998.695 116.08ZM1016.27 112.192C1016.27 113.04 1016.13 113.821 1015.84 114.536C1015.56 115.245 1015.16 115.856 1014.63 116.368C1014.12 116.88 1013.49 117.28 1012.76 117.568C1012.03 117.856 1011.22 118 1010.33 118H1005.86V106.392H1010.33C1011.22 106.392 1012.03 106.536 1012.76 106.824C1013.49 107.112 1014.12 107.515 1014.63 108.032C1015.16 108.544 1015.56 109.155 1015.84 109.864C1016.13 110.573 1016.27 111.349 1016.27 112.192ZM1013.81 112.192C1013.81 111.584 1013.73 111.037 1013.57 110.552C1013.41 110.067 1013.18 109.656 1012.88 109.32C1012.58 108.984 1012.22 108.725 1011.78 108.544C1011.36 108.363 1010.87 108.272 1010.33 108.272H1008.28V116.12H1010.33C1010.87 116.12 1011.36 116.032 1011.78 115.856C1012.22 115.675 1012.58 115.416 1012.88 115.08C1013.18 114.739 1013.41 114.325 1013.57 113.84C1013.73 113.355 1013.81 112.805 1013.81 112.192ZM1021.96 112.168C1022.71 112.168 1023.26 111.987 1023.6 111.624C1023.96 111.261 1024.13 110.765 1024.13 110.136C1024.13 109.848 1024.09 109.587 1024 109.352C1023.91 109.112 1023.78 108.909 1023.6 108.744C1023.42 108.573 1023.2 108.443 1022.92 108.352C1022.65 108.261 1022.33 108.216 1021.96 108.216H1020.44V112.168H1021.96ZM1021.96 106.392C1022.75 106.392 1023.44 106.485 1024.01 106.672C1024.59 106.859 1025.07 107.12 1025.44 107.456C1025.82 107.787 1026.09 108.181 1026.27 108.64C1026.45 109.099 1026.54 109.597 1026.54 110.136C1026.54 110.707 1026.45 111.229 1026.26 111.704C1026.07 112.179 1025.79 112.587 1025.41 112.928C1025.03 113.269 1024.56 113.536 1023.98 113.728C1023.4 113.915 1022.73 114.008 1021.96 114.008H1020.44V118H1018.04V106.392H1021.96ZM1037.7 108.616C1037.62 108.739 1037.55 108.829 1037.47 108.888C1037.39 108.941 1037.29 108.968 1037.17 108.968C1037.05 108.968 1036.93 108.928 1036.79 108.848C1036.65 108.763 1036.5 108.672 1036.32 108.576C1036.13 108.48 1035.93 108.392 1035.69 108.312C1035.46 108.227 1035.18 108.184 1034.87 108.184C1034.31 108.184 1033.9 108.309 1033.62 108.56C1033.34 108.805 1033.2 109.128 1033.2 109.528C1033.2 109.784 1033.28 109.997 1033.43 110.168C1033.58 110.333 1033.78 110.477 1034.03 110.6C1034.28 110.723 1034.56 110.832 1034.88 110.928C1035.19 111.024 1035.51 111.131 1035.84 111.248C1036.17 111.36 1036.5 111.493 1036.81 111.648C1037.13 111.803 1037.41 111.997 1037.65 112.232C1037.9 112.467 1038.1 112.755 1038.25 113.096C1038.41 113.432 1038.48 113.843 1038.48 114.328C1038.48 114.856 1038.39 115.352 1038.2 115.816C1038.02 116.275 1037.76 116.677 1037.41 117.024C1037.06 117.365 1036.64 117.635 1036.12 117.832C1035.62 118.029 1035.04 118.128 1034.4 118.128C1034.03 118.128 1033.66 118.091 1033.29 118.016C1032.93 117.941 1032.58 117.837 1032.24 117.704C1031.9 117.571 1031.58 117.411 1031.28 117.224C1030.98 117.037 1030.72 116.829 1030.5 116.6L1031.2 115.464C1031.26 115.379 1031.34 115.309 1031.44 115.256C1031.53 115.197 1031.63 115.168 1031.74 115.168C1031.88 115.168 1032.04 115.221 1032.2 115.328C1032.36 115.435 1032.54 115.552 1032.75 115.68C1032.96 115.808 1033.2 115.925 1033.47 116.032C1033.74 116.139 1034.08 116.192 1034.46 116.192C1035.02 116.192 1035.45 116.064 1035.76 115.808C1036.06 115.552 1036.22 115.171 1036.22 114.664C1036.22 114.371 1036.14 114.133 1035.99 113.952C1035.84 113.771 1035.64 113.619 1035.4 113.496C1035.15 113.373 1034.87 113.269 1034.56 113.184C1034.24 113.093 1033.92 112.995 1033.59 112.888C1033.26 112.781 1032.93 112.653 1032.62 112.504C1032.3 112.355 1032.02 112.157 1031.78 111.912C1031.53 111.667 1031.33 111.363 1031.18 111C1031.03 110.637 1030.96 110.187 1030.96 109.648C1030.96 109.216 1031.04 108.797 1031.21 108.392C1031.38 107.987 1031.63 107.627 1031.96 107.312C1032.29 106.997 1032.7 106.744 1033.18 106.552C1033.66 106.36 1034.22 106.264 1034.84 106.264C1035.54 106.264 1036.19 106.373 1036.78 106.592C1037.38 106.805 1037.88 107.104 1038.29 107.488L1037.7 108.616ZM1050.13 106.392L1045.46 118H1043.29L1038.61 106.392H1040.55C1040.76 106.392 1040.93 106.443 1041.05 106.544C1041.19 106.64 1041.29 106.765 1041.35 106.92L1043.86 113.608C1043.96 113.859 1044.05 114.133 1044.14 114.432C1044.24 114.725 1044.33 115.035 1044.41 115.36C1044.48 115.035 1044.55 114.725 1044.63 114.432C1044.72 114.133 1044.81 113.859 1044.9 113.608L1047.4 106.92C1047.45 106.787 1047.54 106.667 1047.68 106.56C1047.82 106.448 1047.99 106.392 1048.19 106.392H1050.13ZM1058.33 116.376V118H1051.82V116.376H1054.12V110.024C1054.12 109.885 1054.12 109.744 1054.13 109.6C1054.13 109.456 1054.14 109.309 1054.15 109.16L1052.63 110.424C1052.53 110.504 1052.42 110.555 1052.32 110.576C1052.22 110.597 1052.12 110.6 1052.03 110.584C1051.94 110.563 1051.86 110.531 1051.79 110.488C1051.72 110.44 1051.67 110.392 1051.63 110.344L1050.94 109.408L1054.5 106.384H1056.32V116.376H1058.33Z" fill="white"/>
<rect x="1133.5" y="25.5" width="55" height="55" rx="7.5" fill="#222222"/>
<rect x="1133.5" y="25.5" width="55" height="55" rx="7.5" stroke="#1FFFA9"/>
<path d="M1157.73 41H1164.27L1161 45.8L1157.73 41ZM1159.36 56.456C1159.04 57 1158.82 57.8 1158.82 58.6C1158.82 59.4487 1159.05 60.2626 1159.46 60.8627C1159.87 61.4629 1160.42 61.8 1161 61.8C1161.58 61.8 1162.13 61.4629 1162.54 60.8627C1162.95 60.2626 1163.18 59.4487 1163.18 58.6C1163.18 57.72 1162.94 56.92 1162.54 56.344L1164.09 54.072C1164.87 55.24 1165.36 56.84 1165.36 58.6C1165.36 60.2974 1164.9 61.9253 1164.09 63.1255C1163.27 64.3257 1162.16 65 1161 65C1159.84 65 1158.73 64.3257 1157.91 63.1255C1157.1 61.9253 1156.64 60.2974 1156.64 58.6C1156.64 56.888 1157.09 55.336 1157.84 54.2L1157.83 54.184L1165.55 42.872C1165.95 42.2772 1166.44 41.8056 1166.97 41.4843C1167.5 41.1631 1168.06 40.9985 1168.64 41C1169.79 41 1170.9 41.6743 1171.72 42.8745C1172.54 44.0748 1173 45.7026 1173 47.4C1173 49.0974 1172.54 50.7253 1171.72 51.9255C1170.9 53.1257 1169.79 53.8 1168.64 53.8C1167.44 53.8 1166.35 53.08 1165.55 51.928L1167.1 49.656C1167.49 50.248 1168.04 50.6 1168.64 50.6C1169.22 50.6 1169.77 50.2629 1170.18 49.6627C1170.59 49.0626 1170.82 48.2487 1170.82 47.4C1170.82 46.5513 1170.59 45.7374 1170.18 45.1373C1169.77 44.5372 1169.22 44.2 1168.64 44.2C1168.04 44.2 1167.49 44.552 1167.1 45.144L1159.36 56.456ZM1154.9 45.144C1154.51 44.552 1153.96 44.2 1153.36 44.2C1152.78 44.2 1152.23 44.5372 1151.82 45.1373C1151.41 45.7374 1151.18 46.5513 1151.18 47.4C1151.18 48.2487 1151.41 49.0626 1151.82 49.6627C1152.23 50.2629 1152.78 50.6 1153.36 50.6C1153.96 50.6 1154.51 50.248 1154.9 49.656L1156.45 51.928C1155.65 53.08 1154.56 53.8 1153.36 53.8C1152.21 53.8 1151.1 53.1257 1150.28 51.9255C1149.46 50.7253 1149 49.0974 1149 47.4C1149 45.7026 1149.46 44.0748 1150.28 42.8745C1151.1 41.6743 1152.21 41 1153.36 41C1154.57 41 1155.67 41.72 1156.45 42.872L1159.46 47.288L1157.91 49.56L1154.9 45.144Z" fill="#1FFFA9"/>
<path d="M1150.92 106.392L1146.25 118H1144.07L1139.4 106.392H1141.34C1141.55 106.392 1141.71 106.443 1141.84 106.544C1141.98 106.64 1142.07 106.765 1142.14 106.92L1144.65 113.608C1144.75 113.859 1144.84 114.133 1144.93 114.432C1145.03 114.725 1145.11 115.035 1145.19 115.36C1145.26 115.035 1145.34 114.725 1145.42 114.432C1145.5 114.133 1145.59 113.859 1145.69 113.608L1148.19 106.92C1148.24 106.787 1148.33 106.667 1148.47 106.56C1148.61 106.448 1148.78 106.392 1148.98 106.392H1150.92ZM1158.61 115.976C1158.85 115.976 1159.04 116.043 1159.17 116.176C1159.31 116.309 1159.38 116.485 1159.38 116.704V118H1151.33V117.28C1151.33 117.141 1151.36 116.992 1151.42 116.832C1151.48 116.667 1151.58 116.517 1151.72 116.384L1155.16 112.936C1155.45 112.643 1155.71 112.363 1155.93 112.096C1156.16 111.824 1156.34 111.56 1156.49 111.304C1156.64 111.043 1156.75 110.779 1156.83 110.512C1156.9 110.245 1156.94 109.965 1156.94 109.672C1156.94 109.155 1156.81 108.763 1156.54 108.496C1156.27 108.224 1155.9 108.088 1155.41 108.088C1155.2 108.088 1155 108.12 1154.82 108.184C1154.65 108.243 1154.49 108.325 1154.34 108.432C1154.2 108.539 1154.08 108.664 1153.98 108.808C1153.88 108.952 1153.81 109.109 1153.76 109.28C1153.66 109.547 1153.53 109.725 1153.37 109.816C1153.21 109.901 1152.98 109.92 1152.68 109.872L1151.51 109.664C1151.59 109.099 1151.75 108.603 1151.99 108.176C1152.22 107.749 1152.52 107.395 1152.87 107.112C1153.22 106.829 1153.62 106.619 1154.08 106.48C1154.53 106.336 1155.02 106.264 1155.54 106.264C1156.09 106.264 1156.59 106.347 1157.04 106.512C1157.49 106.672 1157.88 106.899 1158.2 107.192C1158.52 107.48 1158.77 107.829 1158.94 108.24C1159.12 108.651 1159.21 109.104 1159.21 109.6C1159.21 110.027 1159.14 110.421 1159.02 110.784C1158.9 111.147 1158.73 111.493 1158.52 111.824C1158.31 112.149 1158.07 112.467 1157.79 112.776C1157.51 113.085 1157.22 113.397 1156.91 113.712L1154.45 116.232C1154.72 116.152 1154.99 116.091 1155.25 116.048C1155.52 116 1155.77 115.976 1156.01 115.976H1158.61ZM1163.05 111.112C1163.31 110.643 1163.61 110.272 1163.95 110C1164.29 109.728 1164.69 109.592 1165.15 109.592C1165.52 109.592 1165.83 109.68 1166.06 109.856L1165.92 111.488C1165.89 111.595 1165.85 111.669 1165.79 111.712C1165.74 111.749 1165.66 111.768 1165.57 111.768C1165.48 111.768 1165.36 111.757 1165.2 111.736C1165.04 111.709 1164.89 111.696 1164.75 111.696C1164.55 111.696 1164.37 111.725 1164.21 111.784C1164.05 111.843 1163.91 111.925 1163.79 112.032C1163.67 112.139 1163.56 112.269 1163.45 112.424C1163.36 112.579 1163.27 112.755 1163.18 112.952V118H1160.97V109.752H1162.28C1162.5 109.752 1162.66 109.792 1162.74 109.872C1162.83 109.952 1162.89 110.091 1162.93 110.288L1163.05 111.112ZM1171.22 114.552C1170.69 114.579 1170.24 114.627 1169.88 114.696C1169.52 114.76 1169.24 114.845 1169.02 114.952C1168.82 115.059 1168.67 115.181 1168.58 115.32C1168.49 115.453 1168.45 115.6 1168.45 115.76C1168.45 116.08 1168.54 116.307 1168.71 116.44C1168.89 116.573 1169.14 116.64 1169.46 116.64C1169.83 116.64 1170.15 116.576 1170.42 116.448C1170.69 116.315 1170.96 116.109 1171.22 115.832V114.552ZM1166.73 110.896C1167.21 110.459 1167.75 110.133 1168.34 109.92C1168.92 109.701 1169.56 109.592 1170.24 109.592C1170.73 109.592 1171.17 109.672 1171.55 109.832C1171.94 109.992 1172.27 110.216 1172.54 110.504C1172.81 110.787 1173.02 111.125 1173.16 111.52C1173.3 111.915 1173.38 112.347 1173.38 112.816V118H1172.37C1172.16 118 1172 117.971 1171.89 117.912C1171.78 117.853 1171.69 117.731 1171.62 117.544L1171.45 117.016C1171.24 117.197 1171.04 117.357 1170.84 117.496C1170.65 117.635 1170.45 117.752 1170.24 117.848C1170.03 117.939 1169.81 118.008 1169.57 118.056C1169.33 118.104 1169.07 118.128 1168.78 118.128C1168.41 118.128 1168.08 118.08 1167.78 117.984C1167.49 117.888 1167.23 117.747 1167.01 117.56C1166.79 117.368 1166.63 117.131 1166.51 116.848C1166.39 116.565 1166.34 116.24 1166.34 115.872C1166.34 115.568 1166.41 115.264 1166.57 114.96C1166.72 114.656 1166.99 114.381 1167.36 114.136C1167.74 113.885 1168.24 113.68 1168.86 113.52C1169.49 113.355 1170.28 113.261 1171.22 113.24V112.816C1171.22 112.299 1171.11 111.92 1170.9 111.68C1170.68 111.435 1170.36 111.312 1169.95 111.312C1169.65 111.312 1169.39 111.349 1169.19 111.424C1168.99 111.493 1168.81 111.571 1168.66 111.656C1168.51 111.736 1168.37 111.813 1168.23 111.888C1168.1 111.957 1167.94 111.992 1167.77 111.992C1167.61 111.992 1167.48 111.955 1167.38 111.88C1167.27 111.8 1167.19 111.707 1167.12 111.6L1166.73 110.896ZM1182.5 109.752L1178.05 120.216C1177.98 120.365 1177.89 120.477 1177.79 120.552C1177.7 120.627 1177.54 120.664 1177.33 120.664H1175.69L1177.25 117.336L1173.94 109.752H1175.87C1176.05 109.752 1176.19 109.792 1176.28 109.872C1176.38 109.952 1176.45 110.045 1176.49 110.152L1178.06 114.096C1178.12 114.251 1178.17 114.408 1178.21 114.568C1178.26 114.723 1178.3 114.877 1178.35 115.032C1178.44 114.717 1178.55 114.403 1178.67 114.088L1180.13 110.152C1180.17 110.035 1180.25 109.939 1180.36 109.864C1180.47 109.789 1180.6 109.752 1180.73 109.752H1182.5Z" fill="white"/>
</g>
<defs>
<filter id="filter0_d_1_1654" x="0.5" y="0" width="1241" height="149.5" filterUnits="userSpaceOnUse" color-interpolation-filters="sRGB">
<feFlood flood-opacity="0" result="BackgroundImageFix"/>
<feColorMatrix in="SourceAlpha" type="matrix" values="0 0 0 0 0 0 0 0 0 0 0 0 0 0 0 0 0 0 127 0" result="hardAlpha"/>
<feOffset dy="5"/>
<feGaussianBlur stdDeviation="0.75"/>
<feComposite in2="hardAlpha" operator="out"/>
<feColorMatrix type="matrix" values="0 0 0 0 0.121569 0 0 0 0 1 0 0 0 0 0.662745 0 0 0 1 0"/>
<feBlend mode="normal" in2="BackgroundImageFix" result="effect1_dropShadow_1_1654"/>
<feBlend mode="normal" in="SourceGraphic" in2="effect1_dropShadow_1_1654" result="shape"/>
</filter>
</defs>
</svg>
